<svg width="540" height="540" viewBox="0 0 540 540" fill="none" xmlns="http://www.w3.org/2000/svg">
<g clip-path="url(#clip0_14_635)">
<rect width="540" height="540" fill="#3D3E6D"/>
<path d="M-406 15H1570.5" stroke="white" stroke-opacity="0.3"/>
<path d="M-406 45H1570.5" stroke="white" stroke-opacity="0.3"/>
<path d="M-406 195H1570.5" stroke="white" stroke-opacity="0.3"/>
<path d="M-406 345H1570.5" stroke="white" stroke-opacity="0.3"/>
<path d="M-406 495H1570.5" stroke="white" stroke-opacity="0.3"/>
<path d="M-406 75H1570.5" stroke="white" stroke-opacity="0.3"/>
<path d="M-406 225H1570.5" stroke="white" stroke-opacity="0.3"/>
<path d="M-406 375H1570.5" stroke="white" stroke-opacity="0.3"/>
<path d="M-406 525H1570.5" stroke="white" stroke-opacity="0.3"/>
<path d="M-406 105H1570.5" stroke="white" stroke-opacity="0.3"/>
<path d="M-406 255H1570.5" stroke="white" stroke-opacity="0.3"/>
<path d="M-406 405H1570.5" stroke="white" stroke-opacity="0.3"/>
<path d="M-406 135H1570.5" stroke="white" stroke-opacity="0.3"/>
<path d="M-406 285H1570.5" stroke="white" stroke-opacity="0.3"/>
<path d="M-406 435H1570.5" stroke="white" stroke-opacity="0.3"/>
<path d="M-406 165H1570.5" stroke="white" stroke-opacity="0.3"/>
<path d="M-406 315H1570.5" stroke="white" stroke-opacity="0.3"/>
<path d="M-406 465H1570.5" stroke="white" stroke-opacity="0.3"/>
<path d="M15 -76V644.5" stroke="white" stroke-opacity="0.3"/>
<path d="M45 -76V644.5" stroke="white" stroke-opacity="0.3"/>
<path d="M165 -76V644.5" stroke="white" stroke-opacity="0.3"/>
<path d="M285 -76V644.5" stroke="white" stroke-opacity="0.3"/>
<path d="M405 -76V644.5" stroke="white" stroke-opacity="0.3"/>
<path d="M525 -76V644.5" stroke="white" stroke-opacity="0.3"/>
<path d="M75 -76V644.5" stroke="white" stroke-opacity="0.3"/>
<path d="M195 -76V644.5" stroke="white" stroke-opacity="0.3"/>
<path d="M315 -76V644.5" stroke="white" stroke-opacity="0.3"/>
<path d="M435 -76V644.5" stroke="white" stroke-opacity="0.3"/>
<path d="M105 -76V644.5" stroke="white" stroke-opacity="0.3"/>
<path d="M225 -76V644.5" stroke="white" stroke-opacity="0.3"/>
<path d="M345 -76V644.5" stroke="white" stroke-opacity="0.3"/>
<path d="M465 -76V644.5" stroke="white" stroke-opacity="0.3"/>
<path d="M135 -76V644.5" stroke="white" stroke-opacity="0.3"/>
<path d="M255 -76V644.5" stroke="white" stroke-opacity="0.3"/>
<path d="M375 -76V644.5" stroke="white" stroke-opacity="0.3"/>
<path d="M495 -76V644.5" stroke="white" stroke-opacity="0.3"/>
</g>
<defs>
<clipPath id="clip0_14_635">
<rect width="540" height="540" fill="white"/>
</clipPath>
</defs>
</svg>
