<svg xmlns="http://www.w3.org/2000/svg" viewBox="0 0 172.25 140.46"><defs><style>.cls-1{fill:#3d3e6d;}.cls-2{opacity:0.6;}.cls-3{fill:none;stroke:#fff;stroke-miterlimit:10;stroke-width:0.1px;}</style></defs><g id="Camada_2" data-name="Camada 2"><g id="Layer_1" data-name="Layer 1"><rect class="cls-1" width="172.2" height="140.46"/><g class="cls-2"><rect class="cls-3" x="4.3" y="0.08" width="0.15" height="140.31"/><rect class="cls-3" x="8.61" y="0.08" width="0.15" height="140.31"/><rect class="cls-3" x="12.91" y="0.08" width="0.15" height="140.31"/><rect class="cls-3" x="17.21" y="0.08" width="0.15" height="140.31"/><rect class="cls-3" x="21.52" y="0.08" width="0.15" height="140.31"/><rect class="cls-3" x="25.82" y="0.08" width="0.15" height="140.31"/><rect class="cls-3" x="30.12" y="0.08" width="0.15" height="140.31"/><rect class="cls-3" x="34.43" y="0.08" width="0.15" height="140.31"/><rect class="cls-3" x="38.73" y="0.08" width="0.15" height="140.31"/><rect class="cls-3" x="43.03" y="0.08" width="0.15" height="140.31"/><rect class="cls-3" x="47.33" y="0.08" width="0.15" height="140.31"/><rect class="cls-3" x="51.64" y="0.08" width="0.15" height="140.31"/><rect class="cls-3" x="55.94" y="0.08" width="0.15" height="140.31"/><rect class="cls-3" x="60.24" y="0.08" width="0.15" height="140.31"/><rect class="cls-3" x="64.55" y="0.08" width="0.15" height="140.31"/><rect class="cls-3" x="68.85" y="0.08" width="0.15" height="140.31"/><rect class="cls-3" x="73.15" y="0.08" width="0.15" height="140.31"/><rect class="cls-3" x="77.46" y="0.08" width="0.15" height="140.31"/><rect class="cls-3" x="81.76" y="0.08" width="0.15" height="140.31"/><rect class="cls-3" x="86.06" y="0.08" width="0.15" height="140.31"/><rect class="cls-3" x="90.37" y="0.08" width="0.15" height="140.31"/><rect class="cls-3" x="94.67" y="0.08" width="0.15" height="140.31"/><rect class="cls-3" x="98.97" y="0.08" width="0.15" height="140.31"/><rect class="cls-3" x="103.28" y="0.08" width="0.15" height="140.31"/><rect class="cls-3" x="107.58" y="0.08" width="0.15" height="140.31"/><rect class="cls-3" x="111.88" y="0.08" width="0.15" height="140.31"/><rect class="cls-3" x="116.19" y="0.08" width="0.15" height="140.31"/><rect class="cls-3" x="120.49" y="0.08" width="0.15" height="140.31"/><rect class="cls-3" x="124.79" y="0.08" width="0.15" height="140.31"/><rect class="cls-3" x="129.1" y="0.08" width="0.15" height="140.31"/><rect class="cls-3" x="133.4" y="0.08" width="0.15" height="140.31"/><rect class="cls-3" x="137.7" y="0.08" width="0.15" height="140.31"/><rect class="cls-3" x="142" y="0.08" width="0.15" height="140.31"/><rect class="cls-3" x="146.31" y="0.08" width="0.15" height="140.31"/><rect class="cls-3" x="150.61" y="0.08" width="0.15" height="140.31"/><rect class="cls-3" x="154.91" y="0.08" width="0.15" height="140.31"/><rect class="cls-3" x="159.22" y="0.08" width="0.15" height="140.31"/><rect class="cls-3" x="163.52" y="0.08" width="0.15" height="140.31"/><rect class="cls-3" x="167.82" y="0.08" width="0.15" height="140.31"/><rect class="cls-3" x="0.08" y="135.93" width="172.13" height="0.15"/><rect class="cls-3" x="0.08" y="131.54" width="172.13" height="0.15"/><rect class="cls-3" x="0.08" y="127.16" width="172.13" height="0.15"/><rect class="cls-3" x="0.08" y="122.78" width="172.13" height="0.15"/><rect class="cls-3" x="0.08" y="118.39" width="172.13" height="0.15"/><rect class="cls-3" x="0.08" y="114.01" width="172.13" height="0.15"/><rect class="cls-3" x="0.08" y="109.62" width="172.13" height="0.15"/><rect class="cls-3" x="0.08" y="105.24" width="172.13" height="0.15"/><rect class="cls-3" x="0.08" y="100.85" width="172.13" height="0.15"/><rect class="cls-3" x="0.08" y="96.47" width="172.13" height="0.15"/><rect class="cls-3" x="0.08" y="92.08" width="172.13" height="0.15"/><rect class="cls-3" x="0.08" y="87.7" width="172.13" height="0.15"/><rect class="cls-3" x="0.08" y="83.31" width="172.13" height="0.15"/><rect class="cls-3" x="0.08" y="78.93" width="172.13" height="0.15"/><rect class="cls-3" x="0.08" y="74.54" width="172.13" height="0.15"/><rect class="cls-3" x="0.08" y="70.16" width="172.13" height="0.15"/><rect class="cls-3" x="0.08" y="65.77" width="172.13" height="0.15"/><rect class="cls-3" x="0.08" y="61.39" width="172.13" height="0.15"/><rect class="cls-3" x="0.08" y="57" width="172.13" height="0.15"/><rect class="cls-3" x="0.08" y="52.62" width="172.13" height="0.15"/><rect class="cls-3" x="0.08" y="48.23" width="172.13" height="0.15"/><rect class="cls-3" x="0.08" y="43.85" width="172.13" height="0.15"/><rect class="cls-3" x="0.08" y="39.46" width="172.13" height="0.15"/><rect class="cls-3" x="0.08" y="35.08" width="172.13" height="0.15"/><rect class="cls-3" x="0.08" y="30.69" width="172.13" height="0.15"/><rect class="cls-3" x="0.08" y="26.31" width="172.13" height="0.15"/><rect class="cls-3" x="0.08" y="21.92" width="172.13" height="0.15"/><rect class="cls-3" x="0.08" y="17.54" width="172.13" height="0.15"/><rect class="cls-3" x="0.08" y="13.15" width="172.13" height="0.15"/><rect class="cls-3" x="0.08" y="8.77" width="172.13" height="0.15"/><rect class="cls-3" x="0.08" y="4.38" width="172.13" height="0.15"/></g></g></g></svg>