<svg xmlns="http://www.w3.org/2000/svg" viewBox="0 0 223.79 84.05"><defs><style>.cls-1{isolation:isolate;}.cls-2,.cls-3{fill:#a1bf22;}.cls-2,.cls-3,.cls-4,.cls-5{stroke:#fff;stroke-miterlimit:10;stroke-width:2px;}.cls-3,.cls-4{opacity:0.3;}.cls-3{mix-blend-mode:screen;}.cls-4{fill:#fff;}.cls-5{fill:#b1b1b1;mix-blend-mode:color-burn;}</style></defs><g class="cls-1"><g id="Camada_2" data-name="Camada 2"><g id="Camada_2-2" data-name="Camada 2"><path class="cls-2" d="M214.4,39.94c-5.13-2.22-7.06-7.48-12.85-10.58-5-2.68-14-3.22-19.6-6.1-5.27-2.7-7.39-7.85-13.28-10.36s-14.71-2.06-21.13-4-11-6.42-18.08-7.5c-6.77-1-14.58,1.47-22.07,1.47-7.1,0-14.46-2.59-20.79-1.67-6.72,1-11.11,5.35-17,7.11-6.1,1.8-14.69,1.27-20,3.6C44,14.31,42.42,19.32,37.62,22c-5.12,2.81-13.73,3.43-18.15,6.12-5.13,3.13-6,8.28-10.31,10.65C2.93,42.14,5.42,41.81.29,42h0c5.13.21,2.64-.12,8.87,3.29,4.35,2.37,5.18,7.52,10.31,10.65,4.42,2.69,13,3.31,18.15,6.12,4.8,2.64,6.39,7.65,11.9,10,5.35,2.33,13.94,1.8,20,3.61,5.93,1.75,10.32,6.12,17,7.1,6.33.93,13.69-1.67,20.79-1.67,7.49,0,15.3,2.52,22.07,1.47,7-1.08,11.75-5.59,18.08-7.5s15.38-1.54,21.13-4,8-7.66,13.28-10.36c5.62-2.88,14.58-3.42,19.6-6.1,5.79-3.1,7.72-8.35,12.85-10.58A28.31,28.31,0,0,1,223.71,42,28.33,28.33,0,0,1,214.4,39.94Z"/><path class="cls-3" d="M197.45,40.14c-4.64-2-6.38-6.75-11.61-9.55-4.52-2.42-12.62-2.91-17.69-5.51-4.76-2.44-6.67-7.09-12-9.36s-13.28-1.85-19.08-3.6-10-5.8-16.33-6.78c-6.11-.94-13.16,1.33-19.92,1.33-6.41,0-13.06-2.34-18.77-1.51C76,6,72,10,66.67,11.58c-5.51,1.63-13.27,1.15-18.1,3.26s-6.41,6.69-10.74,9.06c-4.63,2.55-12.4,3.1-16.39,5.53-4.63,2.83-5.39,7.48-9.31,9.62-5.63,3.08-2.4,2.78-7,3h0c4.64.19,1.41-.11,7,3,3.92,2.14,4.68,6.79,9.31,9.62,4,2.43,11.76,3,16.39,5.53,4.33,2.38,5.77,6.9,10.74,9.07s12.59,1.62,18.1,3.25C72,74.06,76,78,82.06,78.89c5.71.83,12.36-1.51,18.77-1.51,6.76,0,13.81,2.27,19.92,1.33,6.37-1,10.61-5,16.33-6.78s13.88-1.39,19.08-3.6,7.23-6.92,12-9.36c5.07-2.6,13.17-3.09,17.69-5.51,5.23-2.8,7-7.54,11.61-9.55A25.46,25.46,0,0,1,205.86,42,25.73,25.73,0,0,1,197.45,40.14Z"/><path class="cls-4" d="M182.74,40.36c-4.11-1.78-5.65-6-10.28-8.46-4-2.15-11.18-2.58-15.67-4.88-4.22-2.16-5.92-6.28-10.62-8.29s-11.77-1.65-16.91-3.2-8.82-5.13-14.46-6c-5.41-.83-11.66,1.18-17.65,1.18-5.67,0-11.56-2.08-16.62-1.34-5.38.79-8.89,4.29-13.63,5.69s-11.76,1-16,2.88-5.69,5.93-9.52,8c-4.1,2.25-11,2.74-14.51,4.89-4.11,2.51-4.78,6.62-8.25,8.52-5,2.73-11,2.46-15.12,2.63h0c4.1.17,10.13-.09,15.12,2.63,3.47,1.9,4.14,6,8.25,8.52,3.53,2.15,10.41,2.65,14.51,4.9,3.83,2.1,5.11,6.11,9.52,8S62,67.55,66.9,69s8.25,4.91,13.63,5.69c5.06.74,11-1.34,16.62-1.34,6,0,12.24,2,17.65,1.18,5.64-.87,9.4-4.47,14.46-6s12.3-1.23,16.91-3.2,6.4-6.12,10.62-8.29c4.49-2.3,11.65-2.73,15.67-4.88,4.63-2.48,6.17-6.68,10.28-8.46A22.74,22.74,0,0,1,190.19,42,22.75,22.75,0,0,1,182.74,40.36Z"/><path class="cls-4" d="M164.34,40.62c-3.46-1.5-4.76-5-8.66-7.12-3.37-1.81-9.41-2.17-13.19-4.11-3.55-1.82-5-5.29-8.94-7s-9.9-1.38-14.22-2.69-7.43-4.32-12.18-5c-4.55-.7-9.82,1-14.86,1-4.78,0-9.73-1.75-14-1.13-4.53.66-7.49,3.6-11.48,4.78s-9.89.86-13.49,2.43-4.78,5-8,6.76c-3.45,1.9-9.25,2.32-12.22,4.13-3.46,2.1-4,5.57-7,7.17C22,42.1,16.89,41.88,13.43,42h0c3.46.14,8.53-.08,12.72,2.21,2.93,1.6,3.49,5.07,7,7.17,3,1.82,8.77,2.23,12.22,4.13,3.23,1.77,4.3,5.14,8,6.76s9.38,1.21,13.49,2.43,7,4.12,11.48,4.78c4.26.62,9.21-1.12,14-1.12,5,0,10.31,1.69,14.86,1,4.75-.73,7.91-3.77,12.18-5s10.35-1,14.22-2.69,5.39-5.16,8.94-7c3.78-1.94,9.82-2.3,13.19-4.11,3.9-2.09,5.2-5.62,8.66-7.12a19.07,19.07,0,0,1,6.27-1.4A19.34,19.34,0,0,1,164.34,40.62Z"/><path class="cls-5" d="M201.55,29.36c-5-2.68-14-3.22-19.6-6.1-5.27-2.7-7.39-7.85-13.28-10.36s-14.71-2.06-21.13-4-11-6.42-18.08-7.5c-6.77-1-14.58,1.47-22.07,1.47-7.1,0-14.46-2.59-20.79-1.67-6.72,1-11.11,5.35-17,7.11-6.1,1.8-14.69,1.27-20,3.6C44,14.31,42.42,19.32,37.62,22c-5.12,2.81-13.73,3.43-18.15,6.12-5.13,3.13-6,8.28-10.31,10.66C2.93,42.14,5.42,41.81.29,42H223.71a28.33,28.33,0,0,1-9.31-2.09C209.27,37.72,207.34,32.46,201.55,29.36Z"/></g></g></g></svg>