<svg xmlns="http://www.w3.org/2000/svg" viewBox="0 0 185.58 113.71"><defs><style>.cls-1{isolation:isolate;}.cls-2,.cls-3,.cls-4,.cls-5{fill:#ffbd35;stroke:#fff;stroke-miterlimit:10;stroke-width:2px;}.cls-3{opacity:0.3;}.cls-3,.cls-5{mix-blend-mode:multiply;}.cls-4{opacity:0.2;mix-blend-mode:screen;}.cls-5{opacity:0.8;}</style></defs><g class="cls-1"><g id="Camada_2" data-name="Camada 2"><g id="Camada_3" data-name="Camada 3"><path class="cls-2" d="M184.58,56.86c0-8.9-2.05-18.67-6.67-25.75h0C167.44,13.74,133.3,1,92.79,1S18.15,13.74,7.67,31.11h0C3.06,38.19,1,48,1,56.86S3.06,75.52,7.67,82.6h0C18.15,100,52.29,112.71,92.79,112.71S167.44,100,177.91,82.6h0C182.53,75.52,184.58,65.75,184.58,56.86Z"/><path class="cls-3" d="M177.91,68.11h0C167.44,85.49,133.3,98.22,92.79,98.22S18.15,85.49,7.67,68.11h0c-3.38-5.19-5.38-11.82-6.22-18.5A59.41,59.41,0,0,0,1,56.86C1,65.75,3.06,75.52,7.67,82.6h0C18.15,100,52.29,112.71,92.79,112.71S167.44,100,177.91,82.6h0c4.62-7.08,6.67-16.85,6.67-25.74a59.41,59.41,0,0,0-.45-7.25C183.3,56.29,181.3,62.92,177.91,68.11Z"/><ellipse class="cls-4" cx="92.79" cy="42.37" rx="86.81" ry="40.6"/><ellipse class="cls-4" cx="92.79" cy="42.37" rx="82.58" ry="37.57"/><path class="cls-5" d="M184.58,56.86c0-8.9-2.05-18.67-6.67-25.75h0C167.44,13.74,133.3,1,92.79,1S18.15,13.74,7.67,31.11h0C3.06,38.19,1,48,1,56.86S3.06,75.52,7.67,82.6h0C18.15,100,52.29,112.71,92.79,112.71S167.44,100,177.91,82.6h0C182.53,75.52,184.58,65.75,184.58,56.86Z"/></g></g></g></svg>