<svg xmlns="http://www.w3.org/2000/svg" viewBox="0 0 101.34 89.54"><defs><style>.cls-1{fill:#e8daca;}.cls-2{fill:#f2eae1;}.cls-3{fill:#a1201d;}.cls-4{fill:#841e17;}.cls-5{fill:#9bb639;}.cls-6{fill:#bac870;}.cls-7{fill:#bd4324;}</style></defs><g id="Camada_2" data-name="Camada 2"><g id="MOLHOS"><path class="cls-1" d="M50.67,66.28c-26,0-47.42-12.83-50.31-29.34.34,8.3,2.64,36.58,18,44.57,8.54,5,19.89,8,32.34,8,12.82,0,24.46-3.22,33.06-8.46,13.56-11.34,16.56-35.95,17.19-43.83C97.82,53.61,76.53,66.28,50.67,66.28Z"/><path class="cls-2" d="M50.67,66.28c25.86,0,47.15-12.67,50.25-29a22.56,22.56,0,0,0,.42-4.11C101.34,14.84,78.66,0,50.67,0S0,14.84,0,33.14a21.84,21.84,0,0,0,.36,3.8C3.25,53.45,24.66,66.28,50.67,66.28Zm0-61.89c25.39,0,46,12.83,46.05,28.67a.94.94,0,0,0,.06.15c-.07,15.85-20.66,28.68-46.05,28.68h-.06l-.56,0c-1.3,0-2.59,0-3.86-.12-.71,0-1.41-.12-2.11-.18s-1.48-.12-2.2-.21-1.6-.23-2.4-.35c-.59-.09-1.17-.17-1.75-.28-.85-.16-1.69-.34-2.52-.52-.48-.11-1-.21-1.45-.33-.87-.22-1.73-.45-2.58-.7l-1.17-.35q-1.35-.42-2.64-.9l-.87-.33c-.93-.35-1.83-.72-2.71-1.12l-.52-.24c-1-.45-1.9-.91-2.81-1.4h0c-9.71-5.27-15.88-13-15.88-21.69C4.62,17.26,25.24,4.39,50.67,4.39Z"/><path class="cls-1" d="M28,58.12l-.55-.19q1.29.48,2.64.9l-.42-.15C29.08,58.5,28.53,58.31,28,58.12Z"/><path class="cls-1" d="M24.37,56.7l-.52-.22c.88.4,1.78.77,2.71,1.12l-.6-.25C25.42,57.14,24.89,56.92,24.37,56.7Z"/><path class="cls-1" d="M50.67,61.89h0l-.59,0Z"/><path class="cls-1" d="M21,55.08l-.48-.24c.91.49,1.85.95,2.81,1.4l-.84-.42C22,55.58,21.49,55.34,21,55.08Z"/><path class="cls-1" d="M20.5,54.83c-.43-.23-.82-.49-1.24-.74s-.92-.53-1.36-.81-1.09-.73-1.63-1.11-.82-.56-1.2-.85c-.59-.45-1.12-.91-1.66-1.38s-.83-.72-1.22-1.09c-.63-.6-1.24-1.21-1.8-1.84-.31-.35-.57-.72-.85-1.07s-.71-.87-1-1.32-.51-.8-.75-1.2-.54-.86-.77-1.31-.41-.84-.6-1.27S6,40,5.85,39.5s-.29-.88-.42-1.33c-.07-.26-.18-.52-.25-.79l.07,0a18.65,18.65,0,0,1-.57-4.22c0-6,16.66-25.61,42.48-22.5,14.59,5.09,31.76,4.81,41.92,11.85v0l.1.09A19.13,19.13,0,0,1,91,24.12c.21.18.43.34.63.53a18.78,18.78,0,0,1,1.57,1.76c.18.23.38.42.55.65a17.85,17.85,0,0,1,1.29,2.12c.14.25.31.46.43.72a20.76,20.76,0,0,1,1.23,3.16c-.07-15.84-20.66-28.67-46-28.67S4.62,17.26,4.62,33.14C4.62,41.81,10.79,49.56,20.5,54.83Z"/><path class="cls-1" d="M35.87,60.33l-.6-.12c.83.18,1.67.36,2.52.52l-.18,0C37,60.58,36.45,60.46,35.87,60.33Z"/><path class="cls-1" d="M40.15,61.1,39.54,61c.8.12,1.59.25,2.4.35h-.1C41.27,61.28,40.71,61.18,40.15,61.1Z"/><path class="cls-1" d="M44.76,61.62l-.62,0c.7.06,1.4.14,2.11.18h0C45.73,61.72,45.25,61.66,44.76,61.62Z"/><path class="cls-1" d="M31.81,59.33l-.57-.15c.85.25,1.71.48,2.58.7l-.29-.08Z"/><path class="cls-3" d="M91.65,24.65a18.78,18.78,0,0,1,1.57,1.76A18.78,18.78,0,0,0,91.65,24.65Z"/><path class="cls-3" d="M93.77,27.06a17.85,17.85,0,0,1,1.29,2.12A17.85,17.85,0,0,0,93.77,27.06Z"/><path class="cls-3" d="M89.17,22.63A19.13,19.13,0,0,1,91,24.12,19.13,19.13,0,0,0,89.17,22.63Z"/><path class="cls-3" d="M96.78,33.21a.94.94,0,0,1-.06-.15,20.76,20.76,0,0,0-1.23-3.16A20.91,20.91,0,0,1,96.78,33.21Z"/><path class="cls-3" d="M8.52,44.62c-.28-.39-.51-.8-.75-1.2C8,43.82,8.24,44.23,8.52,44.62Z"/><path class="cls-3" d="M10.39,47c-.31-.35-.57-.72-.85-1.07C9.82,46.29,10.08,46.66,10.39,47Z"/><path class="cls-3" d="M19.26,54.09c-.45-.26-.92-.53-1.36-.81C18.34,53.56,18.81,53.83,19.26,54.09Z"/><path class="cls-3" d="M16.27,52.17c-.4-.28-.82-.56-1.2-.85C15.45,51.61,15.87,51.89,16.27,52.17Z"/><path class="cls-3" d="M40.15,61.1c.56.08,1.12.18,1.69.25C41.27,61.28,40.71,61.18,40.15,61.1Z"/><path class="cls-3" d="M31.81,59.33l1.72.47Z"/><path class="cls-3" d="M28,58.12c.55.19,1.1.38,1.67.56C29.08,58.5,28.53,58.31,28,58.12Z"/><path class="cls-3" d="M44.76,61.62c.49,0,1,.1,1.46.13C45.73,61.72,45.25,61.66,44.76,61.62Z"/><path class="cls-3" d="M24.37,56.7c.52.22,1.05.44,1.59.65C25.42,57.14,24.89,56.92,24.37,56.7Z"/><path class="cls-3" d="M35.87,60.33c.58.13,1.15.25,1.74.36Q36.73,60.53,35.87,60.33Z"/><path class="cls-3" d="M12.19,48.85c.39.37.8.73,1.22,1.09C13,49.58,12.58,49.22,12.19,48.85Z"/><path class="cls-3" d="M21,55.08c.49.26,1,.5,1.49.74C22,55.58,21.49,55.34,21,55.08Z"/><path class="cls-3" d="M5.85,39.5c-.16-.44-.29-.88-.42-1.33C5.56,38.62,5.69,39.06,5.85,39.5Z"/><path class="cls-3" d="M43.72,43.33v0c-5.1-.41-9.06-3.23-9.06-6.68,0-3.05,3.08-5.62,7.32-6.47a4.86,4.86,0,0,1-1-2.88c0-3.74,4.63-6.77,10.35-6.77s10.34,3,10.34,6.77a4.92,4.92,0,0,1-1,2.88C64.92,31,68,33.58,68,36.63A4.63,4.63,0,0,1,67.8,38c14,.07,27.57-.13,21.28-15.41-10.16-7-27.33-6.76-41.92-11.85C21.34,7.6,4.68,27.21,4.68,33.21a18.65,18.65,0,0,0,.57,4.22C11.72,43.25,21.55,47.51,33,49.11A10.72,10.72,0,0,0,43.72,43.33ZM75.21,27.94c1.39,0,2.51.5,2.51,1.12s-1.12,1.12-2.51,1.12-2.51-.5-2.51-1.12S73.83,27.94,75.21,27.94ZM69.37,20c1.39,0,2.51.5,2.51,1.12s-1.12,1.12-2.51,1.12-2.51-.5-2.51-1.12S68,20,69.37,20ZM44,15.83c1.39,0,2.51.5,2.51,1.12S45.38,18.07,44,18.07s-2.51-.5-2.51-1.12S42.6,15.83,44,15.83ZM27.58,17c1.39,0,2.51.5,2.51,1.12S29,19.18,27.58,19.18s-2.51-.5-2.51-1.11S26.19,17,27.58,17Zm-2.51,11c1.39,0,2.51.5,2.51,1.12s-1.12,1.12-2.51,1.12-2.51-.5-2.51-1.12S23.68,27.94,25.07,27.94ZM20.6,40.67c-1.38,0-2.51-.5-2.51-1.12s1.13-1.11,2.51-1.11,2.51.5,2.51,1.11S22,40.67,20.6,40.67Z"/><path class="cls-3" d="M7,42.11c-.22-.41-.41-.84-.6-1.27C6.59,41.27,6.78,41.7,7,42.11Z"/><path class="cls-4" d="M95.49,29.9c-.12-.26-.29-.47-.43-.72a17.85,17.85,0,0,0-1.29-2.12c-.17-.23-.37-.42-.55-.65a18.78,18.78,0,0,0-1.57-1.76c-.2-.19-.42-.35-.63-.53a19.13,19.13,0,0,0-1.85-1.49l-.1-.09v0C95.37,37.84,81.83,38,67.8,38a6.65,6.65,0,0,1-3,3.52,49.46,49.46,0,0,0,7.87,2.23,41.23,41.23,0,0,1-9.28-1.47,14.5,14.5,0,0,1-5.76,1.15,14.85,14.85,0,0,1-4.54-.71s0,.05,0,.08,0-.05,0-.09a11.53,11.53,0,0,1-1.76-.7A14.07,14.07,0,0,1,45,43.4c-.44,0-.85,0-1.28-.09v0A10.72,10.72,0,0,1,33,49.11c-11.43-1.6-21.26-5.86-27.73-11.68l-.07,0c.07.27.18.53.25.79.13.45.26.89.42,1.33s.36.9.55,1.34.38.86.6,1.27.5.88.77,1.31.47.81.75,1.2.67.88,1,1.32.54.72.85,1.07c.56.63,1.17,1.24,1.8,1.84.39.37.8.73,1.22,1.09s1.07.93,1.66,1.38c.38.29.8.57,1.2.85s1.06.76,1.63,1.11.91.55,1.36.81.81.51,1.24.74h0l.48.24c.49.26,1,.5,1.49.74l.84.42.52.24.52.22c.52.22,1.05.44,1.59.65l.6.25.87.33.55.19c.55.19,1.1.38,1.67.56l.42.15,1.17.35.57.15,1.72.47.29.08c.48.12,1,.22,1.45.33l.6.12q.85.2,1.74.36l.18,0c.58.11,1.16.19,1.75.28l.61.09c.56.08,1.12.18,1.69.25h.1c.72.09,1.46.14,2.2.21l.62,0c.49,0,1,.1,1.46.13h0c1.27.08,2.56.11,3.86.12l.59,0h0c25.39,0,46-12.83,46.05-28.68A20.91,20.91,0,0,0,95.49,29.9Z"/><path class="cls-5" d="M60.69,30.16a4.92,4.92,0,0,0,1-2.88c0-3.74-4.63-6.77-10.34-6.77S41,23.54,41,27.28a4.86,4.86,0,0,0,1,2.88c-4.24.85-7.32,3.42-7.32,6.47,0,3.45,4,6.27,9.06,6.68.43,0,.84.09,1.28.09A14.07,14.07,0,0,0,51.34,42a11.53,11.53,0,0,0,1.76.7c.34-2.39,4.1-2.32,4.1-2.32s-3.37.32-4.08,2.33a14.85,14.85,0,0,0,4.54.71,14.5,14.5,0,0,0,5.76-1.15C55.73,40.12,46.14,34.88,46.75,22a17.06,17.06,0,0,0,4,10.2c-.15-2-.26-8.83,4.76-9.87-4.12,1.76-4.64,8.15-4.7,10a22.9,22.9,0,0,0,3.52,3.44c0-.53.75-7.77,5.64-7.79-4.16.86-5.54,7.31-5.64,7.79a38.54,38.54,0,0,0,10.53,5.76,6.65,6.65,0,0,0,3-3.52A4.63,4.63,0,0,0,68,36.63C68,33.58,64.92,31,60.69,30.16Zm-14.34,12c.39-3.94,6.51-3.81,6.51-3.81S47.37,38.85,46.35,42.14Zm5.53-5.47s-11.1-2.84-15.4,2.88C40,32.12,51.88,36.67,51.88,36.67ZM41.69,25c2.63-1.51,4.61,1.84,4.61,1.84S44.12,24.1,41.69,25Zm6.8,7.93S45.35,29.1,42.4,30C45.52,28.32,48.49,32.92,48.49,32.92Zm-.06-6.38c-1.44-3.49,3-5.4,3-5.4S47.72,23.4,48.43,26.54ZM65,33.37c-3.66-.36-6.43,4.84-6.43,4.84S60.93,32.13,65,33.37Z"/><path class="cls-6" d="M54.3,35.73v0a22.9,22.9,0,0,1-3.52-3.44c0,.31,0,.49,0,.49s0-.22-.05-.57a17.06,17.06,0,0,1-4-10.2c-.61,12.87,9,18.11,16.67,20.24a41.23,41.23,0,0,0,9.28,1.47,49.46,49.46,0,0,1-7.87-2.23A38.54,38.54,0,0,1,54.3,35.73Z"/><path class="cls-6" d="M50.78,32.29c.06-1.8.58-8.19,4.7-9.95-5,1-4.91,7.86-4.76,9.87,0,.35.05.57.05.57S50.77,32.6,50.78,32.29Z"/><path class="cls-6" d="M54.3,35.73c.1-.48,1.48-6.93,5.64-7.79-4.89,0-5.6,7.26-5.64,7.79v0Z"/><path class="cls-6" d="M65,33.37c-4-1.24-6.43,4.84-6.43,4.84S61.31,33,65,33.37Z"/><path class="cls-6" d="M36.48,39.55c4.3-5.72,15.4-2.88,15.4-2.88S40,32.12,36.48,39.55Z"/><path class="cls-6" d="M42.4,30c3-.9,6.09,2.92,6.09,2.92S45.52,28.32,42.4,30Z"/><path class="cls-6" d="M46.35,42.14c1-3.29,6.51-3.81,6.51-3.81S46.74,38.2,46.35,42.14Z"/><path class="cls-6" d="M57.2,40.36s-3.76-.07-4.1,2.32c0,0,0,.06,0,.09s0-.05,0-.08C53.83,40.68,57.2,40.36,57.2,40.36Z"/><path class="cls-6" d="M46.3,26.83s-2-3.35-4.61-1.84C44.12,24.1,46.3,26.83,46.3,26.83Z"/><path class="cls-6" d="M48.43,26.54c-.71-3.14,3-5.4,3-5.4S47,23.05,48.43,26.54Z"/><path class="cls-7" d="M75.21,30.18c1.39,0,2.51-.5,2.51-1.12s-1.12-1.12-2.51-1.12-2.51.5-2.51,1.12S73.83,30.18,75.21,30.18Z"/><path class="cls-7" d="M25.07,30.18c1.39,0,2.51-.5,2.51-1.12s-1.12-1.12-2.51-1.12-2.51.5-2.51,1.12S23.68,30.18,25.07,30.18Z"/><path class="cls-7" d="M27.58,19.18c1.39,0,2.51-.5,2.51-1.11S29,17,27.58,17s-2.51.5-2.51,1.12S26.19,19.18,27.58,19.18Z"/><path class="cls-7" d="M69.37,22.26c1.39,0,2.51-.5,2.51-1.12S70.76,20,69.37,20s-2.51.5-2.51,1.12S68,22.26,69.37,22.26Z"/><path class="cls-7" d="M44,18.07c1.39,0,2.51-.5,2.51-1.12S45.38,15.83,44,15.83s-2.51.5-2.51,1.12S42.6,18.07,44,18.07Z"/><path class="cls-7" d="M20.6,38.44c-1.38,0-2.51.5-2.51,1.11s1.13,1.12,2.51,1.12,2.51-.5,2.51-1.12S22,38.44,20.6,38.44Z"/></g></g></svg>