<svg xmlns="http://www.w3.org/2000/svg" viewBox="0 0 101.35 89.54"><defs><style>.cls-1{fill:#e8daca;}.cls-2{fill:#f2eae1;}.cls-3{fill:#faeec2;}.cls-4{fill:#f5dc83;}.cls-5{fill:#9bb639;}.cls-6{fill:#bac870;}.cls-7{fill:#fff;}</style></defs><g id="Camada_2" data-name="Camada 2"><g id="MOLHOS"><path class="cls-1" d="M50.67,66.28C24.66,66.28,3.25,53.45.36,37,.7,45.24,3,73.52,18.33,81.51c8.54,5,19.89,8,32.34,8,12.82,0,24.46-3.22,33.06-8.46,13.56-11.35,16.56-36,17.19-43.83C97.82,53.61,76.53,66.28,50.67,66.28Z"/><path class="cls-2" d="M50.67,0C22.69,0,0,14.84,0,33.14A22,22,0,0,0,.36,37c2.89,16.5,24.3,29.33,50.31,29.33,25.86,0,47.15-12.67,50.25-29a22.56,22.56,0,0,0,.43-4.11C101.35,14.84,78.66,0,50.67,0Zm.06,61.89h-.06l-.62,0c-1.28,0-2.54,0-3.79-.12-.73,0-1.43-.12-2.15-.18s-1.45-.12-2.16-.21-1.62-.23-2.42-.35l-1.73-.28c-.86-.16-1.7-.34-2.54-.52-.48-.11-1-.21-1.43-.33-.88-.22-1.75-.45-2.6-.7l-1.16-.35c-.9-.28-1.78-.58-2.65-.9l-.86-.33c-.93-.35-1.83-.73-2.71-1.12l-.51-.24c-1-.45-1.91-.91-2.82-1.4h0c-9.72-5.27-15.89-13-15.89-21.69,0-15.88,20.62-28.75,46.05-28.75s46,12.83,46.05,28.67a.94.94,0,0,0,.06.15C96.71,49.06,76.12,61.89,50.73,61.89Z"/><path class="cls-1" d="M44.76,61.62l-.65,0c.72.06,1.42.14,2.15.18h0C45.73,61.72,45.25,61.66,44.76,61.62Z"/><path class="cls-1" d="M21,55.08l-.48-.24c.91.49,1.85.95,2.82,1.4-.29-.13-.56-.28-.84-.42C22,55.58,21.49,55.34,21,55.08Z"/><path class="cls-1" d="M50.67,61.89h0l-.65,0Z"/><path class="cls-1" d="M17.9,53.28c-.57-.36-1.1-.74-1.63-1.11s-.82-.56-1.2-.85c-.58-.44-1.12-.91-1.66-1.38s-.84-.73-1.24-1.11c-.62-.6-1.23-1.2-1.78-1.83-.31-.34-.57-.7-.85-1.06s-.71-.87-1-1.32-.51-.8-.75-1.2-.54-.86-.77-1.3-.41-.85-.6-1.28S6,40,5.85,39.5s-.29-.88-.42-1.33c-.07-.26-.18-.52-.24-.79a.15.15,0,0,0,.06,0,18.65,18.65,0,0,1-.57-4.22c0-6,16.66-25.61,42.48-22.5,14.59,5.09,31.76,4.81,41.92,11.85v0l.1.08A19.22,19.22,0,0,1,91,24.12c.21.18.43.34.63.53a17.5,17.5,0,0,1,1.56,1.76c.19.22.39.42.57.65a19.07,19.07,0,0,1,1.28,2.11c.14.25.31.47.44.73a21.84,21.84,0,0,1,1.22,3.16c-.07-15.84-20.66-28.67-46-28.67S4.62,17.26,4.62,33.14c0,8.67,6.17,16.42,15.89,21.69-.43-.23-.83-.49-1.25-.74S18.34,53.56,17.9,53.28Z"/><path class="cls-1" d="M31.81,59.33l-.58-.15c.85.25,1.72.48,2.6.7l-.3-.08Z"/><path class="cls-1" d="M40.15,61.1,39.53,61c.8.12,1.6.25,2.42.35h-.11C41.27,61.28,40.71,61.18,40.15,61.1Z"/><path class="cls-1" d="M35.87,60.33l-.61-.12c.84.18,1.68.36,2.54.52l-.19,0C37,60.58,36.45,60.46,35.87,60.33Z"/><path class="cls-1" d="M28,58.12l-.56-.19c.87.32,1.75.62,2.65.9l-.42-.15C29.08,58.5,28.53,58.31,28,58.12Z"/><path class="cls-1" d="M24.37,56.7l-.52-.22c.88.39,1.78.77,2.71,1.12l-.6-.25C25.42,57.14,24.89,56.92,24.37,56.7Z"/><path class="cls-3" d="M4.68,33.21a18.65,18.65,0,0,0,.57,4.22C11.72,43.25,21.55,47.51,33,49.11A9.67,9.67,0,0,0,36.07,49c-2.35-.92-3.94-2.58-3.94-4.5,0-2.36,2.39-4.36,5.68-5A3.8,3.8,0,0,1,37,37.29c0-2.9,3.6-5.25,8-5.25s8,2.35,8,5.25a3.54,3.54,0,0,1-.27,1.29c16.05-2.51,44.92,5,36.26-16-10.16-7-27.33-6.76-41.92-11.85C21.34,7.6,4.68,27.21,4.68,33.21ZM20.6,40.67c-1.38,0-2.51-.5-2.51-1.12s1.13-1.11,2.51-1.11,2.51.5,2.51,1.11S22,40.67,20.6,40.67Zm7-23.72c1.39,0,2.51.5,2.51,1.12S29,19.18,27.58,19.18s-2.51-.5-2.51-1.11S26.19,17,27.58,17Zm-2.51,11c1.39,0,2.51.5,2.51,1.12s-1.12,1.12-2.51,1.12-2.51-.5-2.51-1.12S23.68,27.94,25.07,27.94Zm16.19.42c-1,0-1.75-.35-1.75-.78s.78-.78,1.75-.78,1.74.35,1.74.78S42.22,28.36,41.26,28.36ZM44,18.07c-1.38,0-2.51-.5-2.51-1.12s1.13-1.12,2.51-1.12,2.51.5,2.51,1.12S45.38,18.07,44,18.07ZM83.87,25.3c.95,0,1.71.34,1.71.76s-.76.76-1.71.76-1.72-.34-1.72-.76S82.92,25.3,83.87,25.3Zm-3.08,6.93c0,.51-.93.92-2.08.92s-2.09-.41-2.09-.92.94-.93,2.09-.93S80.79,31.72,80.79,32.23ZM77.66,21.42c1.39,0,2.51.5,2.51,1.12s-1.12,1.11-2.51,1.11-2.51-.5-2.51-1.11S76.27,21.42,77.66,21.42ZM53.93,22.94a3.82,3.82,0,0,1-.77-2.24c0-2.9,3.59-5.25,8-5.25s8,2.35,8,5.25a3.82,3.82,0,0,1-.77,2.24c3.28.65,5.67,2.65,5.67,5,0,2.9-3.59,5.25-8,5.25a11.54,11.54,0,0,1-3.52-.55l0,.06a.19.19,0,0,0,0-.07,9.3,9.3,0,0,1-1.37-.54,11,11,0,0,1-4.9,1.1c-4.44,0-8-2.35-8-5.25C48.25,25.59,50.64,23.59,53.93,22.94Z"/><path class="cls-3" d="M96.78,33.21a.94.94,0,0,1-.06-.15A21.84,21.84,0,0,0,95.5,29.9,21.9,21.9,0,0,1,96.78,33.21Z"/><path class="cls-3" d="M95.06,29.17a19.07,19.07,0,0,0-1.28-2.11A20.05,20.05,0,0,1,95.06,29.17Z"/><path class="cls-3" d="M91.65,24.65a17.36,17.36,0,0,1,1.56,1.76A17.5,17.5,0,0,0,91.65,24.65Z"/><path class="cls-3" d="M91,24.12a19.22,19.22,0,0,0-1.85-1.5A19.22,19.22,0,0,1,91,24.12Z"/><path class="cls-3" d="M44.76,61.62c.49,0,1,.1,1.46.13C45.73,61.72,45.25,61.66,44.76,61.62Z"/><path class="cls-3" d="M21,55.08c.49.26,1,.5,1.5.74C22,55.58,21.49,55.34,21,55.08Z"/><path class="cls-3" d="M24.37,56.7c.52.22,1.05.44,1.59.65C25.42,57.14,24.89,56.92,24.37,56.7Z"/><path class="cls-3" d="M28,58.12c.55.19,1.1.38,1.67.56C29.08,58.5,28.53,58.31,28,58.12Z"/><path class="cls-3" d="M31.81,59.33l1.72.47Z"/><path class="cls-3" d="M35.87,60.33c.58.13,1.15.25,1.74.36C37,60.58,36.45,60.46,35.87,60.33Z"/><path class="cls-3" d="M40.15,61.1c.56.08,1.12.18,1.69.25C41.27,61.28,40.71,61.18,40.15,61.1Z"/><path class="cls-3" d="M5.43,38.17c.13.45.26.89.42,1.33C5.69,39.06,5.56,38.62,5.43,38.17Z"/><path class="cls-3" d="M9.54,45.94c.28.36.54.72.85,1.06C10.08,46.66,9.82,46.3,9.54,45.94Z"/><path class="cls-3" d="M13.41,49.94c-.42-.37-.84-.73-1.24-1.11C12.57,49.21,13,49.57,13.41,49.94Z"/><path class="cls-3" d="M7.77,43.42c.24.4.47.81.75,1.2C8.24,44.23,8,43.82,7.77,43.42Z"/><path class="cls-3" d="M15.07,51.32c.38.29.8.56,1.2.85C15.87,51.88,15.45,51.61,15.07,51.32Z"/><path class="cls-3" d="M17.9,53.28c.44.28.91.55,1.36.81C18.81,53.83,18.34,53.56,17.9,53.28Z"/><path class="cls-3" d="M6.4,40.84c.19.43.38.85.6,1.28C6.78,41.7,6.59,41.27,6.4,40.84Z"/><path class="cls-4" d="M96.78,33.21A21.9,21.9,0,0,0,95.5,29.9c-.13-.26-.3-.48-.44-.73a20.05,20.05,0,0,0-1.28-2.11c-.18-.23-.38-.43-.57-.65a17.36,17.36,0,0,0-1.56-1.76c-.2-.19-.42-.35-.63-.53a19.22,19.22,0,0,0-1.85-1.5l-.1-.08v0c8.66,21-20.21,13.51-36.26,16a4.1,4.1,0,0,1-.51.94c3.29.66,5.68,2.66,5.68,5a4.61,4.61,0,0,1-2.46,3.77A37.6,37.6,0,0,0,61.63,50a33,33,0,0,1-7.18-1.14,11.67,11.67,0,0,1-8,.34s0,0,0,.06,0,0,0-.06a9.32,9.32,0,0,1-1.37-.55,10.89,10.89,0,0,1-4.9,1.1A11.24,11.24,0,0,1,36.07,49a9.67,9.67,0,0,1-3.09.07c-11.43-1.6-21.26-5.86-27.73-11.68a.15.15,0,0,1-.06,0c.06.27.17.53.24.79.13.45.26.89.42,1.33s.35.89.55,1.34.38.86.6,1.28.5.87.77,1.3.47.81.75,1.2.67.88,1,1.32.54.72.85,1.06c.55.63,1.16,1.23,1.78,1.83.4.38.82.74,1.24,1.11s1.08.94,1.66,1.38c.38.29.8.56,1.2.85s1.06.75,1.63,1.11.91.55,1.36.81.82.51,1.25.74h0l.48.24c.49.26,1,.5,1.5.74.28.14.55.29.84.42l.51.24.52.22c.52.22,1.05.44,1.59.65l.6.25.86.33.56.19c.55.19,1.1.38,1.67.56l.42.15,1.16.35.58.15,1.72.47.3.08c.47.12,1,.22,1.43.33l.61.12c.58.13,1.15.25,1.74.36l.19,0,1.73.28.62.09c.56.08,1.12.18,1.69.25H42c.71.09,1.44.14,2.16.21l.65,0c.49,0,1,.1,1.46.13h0c1.25.08,2.51.11,3.79.12l.65,0h0C76.12,61.89,96.71,49.06,96.78,33.21Z"/><path class="cls-5" d="M45.06,32c-4.43,0-8,2.35-8,5.25a3.8,3.8,0,0,0,.78,2.23c-3.29.66-5.68,2.66-5.68,5,0,1.92,1.59,3.58,3.94,4.5a11.24,11.24,0,0,0,4.09.75,10.89,10.89,0,0,0,4.9-1.1,9.32,9.32,0,0,0,1.37.55c.26-1.86,3.18-1.81,3.18-1.81s-2.61.26-3.17,1.81a11.67,11.67,0,0,0,8-.34c-6-1.65-13.42-5.7-13-15.7a13.25,13.25,0,0,0,3.08,7.91c-.11-1.55-.2-6.84,3.7-7.65-3.21,1.37-3.6,6.34-3.65,7.72a17.61,17.61,0,0,0,2.73,2.66c0-.21.51-6,4.38-6-3.29.68-4.34,5.85-4.38,6.05a29.87,29.87,0,0,0,8.17,4.46A4.61,4.61,0,0,0,58,44.54c0-2.36-2.39-4.36-5.68-5a4.1,4.1,0,0,0,.51-.94,3.54,3.54,0,0,0,.27-1.29C53.09,34.39,49.49,32,45.06,32Zm-7.49,3.47c2-1.17,3.58,1.43,3.58,1.43S39.46,34.82,37.57,35.51Zm8.67,10.35s-4.26.41-5.05,3C41.5,45.76,46.24,45.86,46.24,45.86Zm-12.7,1c2.74-5.77,11.94-2.23,11.94-2.23S36.87,42.37,33.54,46.81Zm9.31-5.15s-2.43-3-4.72-2.26C40.55,38.09,42.85,41.66,42.85,41.66Zm0-4.94c-1.12-2.71,2.33-4.19,2.33-4.19S42.25,34.28,42.81,36.72ZM55.64,42c-2.84-.27-5,3.76-5,3.76S52.5,41.05,55.64,42Z"/><path class="cls-6" d="M47.35,43.88v0a17.61,17.61,0,0,1-2.73-2.66c0,.23,0,.38,0,.38s0-.17,0-.45A13.25,13.25,0,0,1,41.5,33.2c-.47,10,7,14,13,15.7A33,33,0,0,0,61.63,50a37.6,37.6,0,0,1-6.1-1.73,29.87,29.87,0,0,1-8.17-4.46Z"/><path class="cls-6" d="M44.63,41.18c0-1.38.44-6.35,3.65-7.72-3.9.81-3.81,6.1-3.7,7.65,0,.28,0,.45,0,.45S44.62,41.41,44.63,41.18Z"/><path class="cls-6" d="M47.36,43.85c0-.2,1.09-5.37,4.38-6.05-3.87,0-4.36,5.83-4.38,6v0Z"/><path class="cls-6" d="M55.64,42c-3.14-1-5,3.76-5,3.76S52.8,41.74,55.64,42Z"/><path class="cls-6" d="M33.54,46.81c3.33-4.44,11.94-2.23,11.94-2.23S36.28,41,33.54,46.81Z"/><path class="cls-6" d="M38.13,39.4c2.29-.7,4.72,2.26,4.72,2.26S40.55,38.09,38.13,39.4Z"/><path class="cls-6" d="M41.19,48.82c.79-2.55,5.05-3,5.05-3S41.5,45.76,41.19,48.82Z"/><path class="cls-6" d="M49.61,47.43s-2.92,0-3.18,1.81c0,0,0,0,0,.06s0,0,0-.06C47,47.69,49.61,47.43,49.61,47.43Z"/><path class="cls-6" d="M41.15,36.94s-1.53-2.6-3.58-1.43C39.46,34.82,41.15,36.94,41.15,36.94Z"/><path class="cls-6" d="M45.14,32.53S41.69,34,42.81,36.72C42.25,34.28,45.14,32.53,45.14,32.53Z"/><path class="cls-5" d="M56.28,33.21a11,11,0,0,0,4.9-1.1,9.3,9.3,0,0,0,1.37.54c.26-1.86,3.18-1.8,3.18-1.8s-2.61.25-3.16,1.81a11.54,11.54,0,0,0,3.52.55c4.43,0,8-2.35,8-5.25,0-2.37-2.39-4.37-5.67-5a3.82,3.82,0,0,0,.77-2.24c0-2.9-3.6-5.25-8-5.25s-8,2.35-8,5.25a3.82,3.82,0,0,0,.77,2.24c-3.29.65-5.68,2.65-5.68,5C48.25,30.86,51.84,33.21,56.28,33.21Zm1-1c.3-3.06,5-2.95,5-2.95S58.1,29.68,57.32,32.23Zm14.44-6.8c-2.84-.28-5,3.75-5,3.75S68.62,24.47,71.76,25.43Zm-3.9-4.21c-3.35.69-4.38,6.08-4.38,6.08S63.92,21.23,67.86,21.22ZM64.4,16.87c-3.73,1.6-3.66,8.1-3.66,8.1S59.83,17.82,64.4,16.87Zm-3.14-.93s-2.88,1.76-2.33,4.19C57.81,17.42,61.26,15.94,61.26,15.94Zm-7.56,3c2-1.16,3.57,1.43,3.57,1.43S55.58,18.24,53.7,18.92ZM59,25.08s-2.43-3-4.72-2.26C56.67,21.51,59,25.08,59,25.08Zm2.22,2.77c-2.21-2.09-3.83-5.52-3.57-11.24.59,13.52,14.14,14.24,14.14,14.24s-6.3.94-10.5-2.94c-1.62-.35-8.66-1.6-11.6,2.31C52.05,25.19,59.38,27.24,61.19,27.85Z"/><path class="cls-6" d="M61.26,27.91c4.2,3.88,10.5,2.94,10.5,2.94s-13.55-.72-14.14-14.24c-.26,5.72,1.36,9.15,3.57,11.24l.41.14Z"/><path class="cls-6" d="M60.74,25s-.07-6.5,3.66-8.1C59.83,17.82,60.74,25,60.74,25Z"/><path class="cls-6" d="M67.86,21.22c-3.94,0-4.38,6.08-4.38,6.08S64.51,21.91,67.86,21.22Z"/><path class="cls-6" d="M71.76,25.43c-3.14-1-5,3.75-5,3.75S68.92,25.15,71.76,25.43Z"/><path class="cls-6" d="M61.26,27.91l.34.08-.41-.14c-1.81-.61-9.14-2.66-11.53,2.37C52.6,26.31,59.64,27.56,61.26,27.91Z"/><path class="cls-6" d="M54.25,22.82c2.29-.7,4.72,2.26,4.72,2.26S56.67,21.51,54.25,22.82Z"/><path class="cls-6" d="M57.32,32.23c.78-2.55,5-2.95,5-2.95S57.62,29.17,57.32,32.23Z"/><path class="cls-6" d="M65.73,30.85s-2.92-.06-3.18,1.8a.19.19,0,0,1,0,.07l0-.06C63.12,31.1,65.73,30.85,65.73,30.85Z"/><path class="cls-6" d="M57.27,20.35s-1.53-2.59-3.57-1.43C55.58,18.24,57.27,20.35,57.27,20.35Z"/><path class="cls-6" d="M61.26,15.94s-3.45,1.48-2.33,4.19C58.38,17.7,61.26,15.94,61.26,15.94Z"/><path class="cls-7" d="M76.62,32.23c0,.51.94.92,2.09.92s2.08-.41,2.08-.92-.93-.93-2.08-.93S76.62,31.72,76.62,32.23Z"/><path class="cls-7" d="M83.87,26.82c.95,0,1.71-.34,1.71-.76s-.76-.76-1.71-.76-1.72.34-1.72.76S82.92,26.82,83.87,26.82Z"/><path class="cls-7" d="M41.26,26.8c-1,0-1.75.35-1.75.78s.78.78,1.75.78S43,28,43,27.58,42.22,26.8,41.26,26.8Z"/><path class="cls-7" d="M25.07,30.18c1.39,0,2.51-.5,2.51-1.12s-1.12-1.12-2.51-1.12-2.51.5-2.51,1.12S23.68,30.18,25.07,30.18Z"/><path class="cls-7" d="M27.58,19.18c1.39,0,2.51-.5,2.51-1.11S29,17,27.58,17s-2.51.5-2.51,1.12S26.19,19.18,27.58,19.18Z"/><path class="cls-7" d="M77.66,23.65c1.39,0,2.51-.5,2.51-1.11s-1.12-1.12-2.51-1.12-2.51.5-2.51,1.12S76.27,23.65,77.66,23.65Z"/><path class="cls-7" d="M44,15.83c-1.38,0-2.51.5-2.51,1.12s1.13,1.12,2.51,1.12,2.51-.5,2.51-1.12S45.38,15.83,44,15.83Z"/><path class="cls-7" d="M20.6,38.44c-1.38,0-2.51.5-2.51,1.11s1.13,1.12,2.51,1.12,2.51-.5,2.51-1.12S22,38.44,20.6,38.44Z"/></g></g></svg>