<svg xmlns="http://www.w3.org/2000/svg" viewBox="0 0 184.58 112.71"><defs><style>.cls-1{isolation:isolate;}.cls-2,.cls-3,.cls-4,.cls-7{fill:#a1785a;stroke-miterlimit:10;}.cls-2,.cls-3,.cls-4,.cls-6,.cls-7{stroke:#fff;}.cls-3{opacity:0.3;}.cls-3,.cls-5,.cls-7{mix-blend-mode:multiply;}.cls-4{opacity:0.2;mix-blend-mode:screen;}.cls-5{opacity:0.5;}.cls-6{fill:none;stroke-linecap:round;stroke-linejoin:round;}.cls-7{opacity:0.8;}</style></defs><g class="cls-1"><g id="Camada_2" data-name="Camada 2"><g id="Camada_2-2" data-name="Camada 2"><path class="cls-2" d="M184.08,56.36c0-8.9-2.05-18.67-6.67-25.75h0C166.94,13.24,132.8.5,92.29.5S17.65,13.24,7.17,30.61h0C2.56,37.69.5,47.46.5,56.36S2.56,75,7.17,82.1h0c10.48,17.38,44.62,30.11,85.12,30.11s74.65-12.73,85.12-30.11h0C182,75,184.08,65.25,184.08,56.36Z"/><path class="cls-3" d="M177.41,67.61h0C166.94,85,132.8,97.72,92.29,97.72S17.65,85,7.17,67.61h0C3.79,62.42,1.79,55.79,1,49.11A59.41,59.41,0,0,0,.5,56.36C.5,65.25,2.56,75,7.17,82.1h0c10.48,17.38,44.62,30.11,85.12,30.11s74.65-12.73,85.12-30.11h0c4.62-7.08,6.67-16.85,6.67-25.74a59.41,59.41,0,0,0-.45-7.25C182.8,55.79,180.8,62.42,177.41,67.61Z"/><ellipse class="cls-4" cx="92.29" cy="41.87" rx="86.81" ry="40.6"/><ellipse class="cls-4" cx="92.29" cy="41.87" rx="82.58" ry="37.57"/><g class="cls-5"><line class="cls-6" x1="39.61" y1="70.79" x2="145.48" y2="13.13"/><line class="cls-6" x1="122.87" y1="6.96" x2="22.25" y2="61.77"/><line class="cls-6" x1="14.81" y1="28.85" x2="50.31" y2="9.51"/><path class="cls-6" d="M11.31,49.24,93.8,4.31H92.29"/><line class="cls-6" x1="50.31" y1="9.51" x2="14.81" y2="28.85"/><line class="cls-6" x1="22.25" y1="61.77" x2="122.87" y2="6.96"/><line class="cls-6" x1="93.8" y1="4.31" x2="11.31" y2="49.24"/><line class="cls-6" x1="136" y1="73.74" x2="169.05" y2="55.74"/><path class="cls-6" d="M173.43,34.87,91.62,79.43h.67"/><line class="cls-6" x1="62.36" y1="76.89" x2="162.7" y2="22.23"/><line class="cls-6" x1="145.48" y1="13.13" x2="39.61" y2="70.79"/><line class="cls-6" x1="169.05" y1="55.74" x2="136" y2="73.74"/><line class="cls-6" x1="91.62" y1="79.43" x2="173.43" y2="34.87"/><line class="cls-6" x1="162.7" y1="22.23" x2="62.36" y2="76.89"/></g><path class="cls-7" d="M184.08,56.36c0-8.9-2.05-18.67-6.67-25.75h0C166.94,13.24,132.8.5,92.29.5S17.65,13.24,7.17,30.61h0C2.56,37.69.5,47.46.5,56.36S2.56,75,7.17,82.1h0c10.48,17.38,44.62,30.11,85.12,30.11s74.65-12.73,85.12-30.11h0C182,75,184.08,65.25,184.08,56.36Z"/></g></g></g></svg>