<svg xmlns="http://www.w3.org/2000/svg" viewBox="0 0 171.94 82.06"><defs><style>.cls-1{isolation:isolate;}.cls-2{fill:#eab0ea;}.cls-2,.cls-4,.cls-5,.cls-6,.cls-7,.cls-8,.cls-9{stroke:#fff;stroke-miterlimit:10;}.cls-3,.cls-9{mix-blend-mode:color-burn;}.cls-4{fill:#fc0;}.cls-5,.cls-9{fill:#cacaca;}.cls-6{fill:#e4e4e4;}.cls-7,.cls-8{fill:#fff;}.cls-8{opacity:0.7;}</style></defs><g class="cls-1"><g id="Camada_2" data-name="Camada 2"><g id="Camada_2-2" data-name="Camada 2"><path class="cls-2" d="M106.63,18.51v0l0-.34h0a6.21,6.21,0,0,0-.13-.73h0v0c0-.16-.08-.31-.13-.46h0l-1.17-4.1h0a2.37,2.37,0,0,0-.09-.36h0c0-.12-.07-.25-.12-.37h0c0-.07,0-.13-.07-.2l0-.12c0-.06,0-.12-.08-.19l-.06-.13,0-.09h0l-.05-.09a.91.91,0,0,0-.07-.14l-.06-.12,0,0v0c0-.05,0-.1-.08-.14a.86.86,0,0,0-.1-.16v0l-.08-.13-.11-.17-.1-.14-.12-.17-.1-.13-.13-.17-.1-.13-.15-.17-.09-.1-.35-.39-.08-.08-.17-.17-.13-.12-.17-.17-.14-.12-.17-.16L101.91,8l-.18-.16-.16-.12-.19-.15-.16-.13-.2-.15-.17-.12-.2-.14-.18-.13-.21-.14-.18-.12-.22-.14-.18-.11-.44-.27L99,6l-.23-.13-.21-.12-.24-.12-.22-.12-.24-.13-.23-.11-.24-.12L97.19,5l-.25-.12L96.7,4.8l-.25-.11-.26-.11-.25-.12-.27-.11-.25-.1-.29-.12L94.89,4l-.53-.2-.22-.08-.34-.12-.25-.09-.31-.11L93,3.34l-.31-.1-.28-.09-.31-.09L91.79,3l-.32-.09-.28-.09-.33-.09-.29-.08-.34-.09L90,2.46l-.36-.1-.27-.06-.43-.11-.21,0L88,2,87.83,2l-.45-.09-.27-.06-.4-.08-.29-.05L86,1.59l-.3-.05-.39-.07L85,1.42l-.38-.06-.31-.05L84,1.25l-.3-.05-.42-.06-.3,0-.45-.05-.26,0L81.63.94h-.14L80.77.85l-.24,0-.5,0-.29,0-.46,0L79,.7l-.44,0-.32,0-.44,0-.32,0L77,.58h-.33l-.45,0h-.32l-.47,0H71.7l-.47,0h-.32l-.45,0h-.33l-.44,0-.32,0-.44,0-.32,0-.44,0-.31,0-.46,0-.29,0-.5,0-.24,0-.72.08h-.14L64.92,1l-.26,0-.45.05-.3,0-.42.06-.3.05-.4.06-.31.05-.38.06-.31.05-.39.07-.3.05-.38.08-.29.05L60,1.8l-.27.06L59.31,2,59.1,2l-.64.14-.21,0-.43.11-.27.06-.36.1-.28.07-.34.09-.29.08L56,2.79l-.29.09L55.35,3l-.28.09-.31.09-.28.09-.31.1-.27.09-.3.11-.26.09L53,3.75l-.22.08-.52.2-.24.1-.3.12-.25.1-.27.11L51,4.58l-.26.11-.25.11-.24.11L50,5l-.24.12-.24.12-.23.11L49,5.51l-.22.12-.24.12-.21.12L48.1,6l-.2.12-.44.27-.18.11-.22.14-.18.12-.21.14L46.49,7l-.2.14-.17.12-.2.15-.16.13-.19.15-.16.12L45.23,8l-.15.12-.17.16-.14.12c-.06.06-.12.11-.17.17l-.13.12-.17.17-.08.08-.35.39-.09.1-.15.17-.1.13-.13.17-.1.13-.12.17,0,.07h0l-.05.07-.11.17a.64.64,0,0,0-.08.14s-.07.11-.11.17L42.7,11l-.09.17,0,0h0s0,.07-.05.1l-.09.18-.06.13,0,.07,0,.12-.05.12c0,.07,0,.13-.07.2h0c0,.12-.08.25-.12.37h0c0,.13-.07.25-.09.37h0l-1.17,4.1h0c-.05.15-.09.3-.13.46v0h0a6.21,6.21,0,0,0-.13.73h0l0,.34v0c0,.13,0,.25,0,.37,0,7.86,14.8,14.22,33.07,14.22s33.07-6.36,33.07-14.22C106.64,18.76,106.64,18.64,106.63,18.51ZM72.86,25.62H70.38l-.33,0h-.38l-.32,0h-.12l-.27,0-.35,0h0l-.3,0-.38,0-.32,0-.37,0-.27,0h-.12l-.3,0-.22,0-.16,0-.29,0-.18,0-.2,0-.3,0-.12,0-.23,0-.33,0h-.06l-.26,0L63.8,25l-.27,0-.39-.06-.24,0-.6-.1-.25,0-.36-.07-.28-.05-.32-.06-.28-.05h0l-.28-.05-.26,0-.08,0-.25,0-.23-.05-.12,0-.22-.05-.22,0-.16,0L58.77,24l-.2,0-.19-.05-.13,0L58,23.84l-.2-.05-.34-.08-.19-.06-.25-.06-.12,0-.14,0-.26-.07-.15,0-.1,0L56,23.29l-.18-.06h0l-.3-.09-.18-.06L55,23l-.16-.05-.34-.12-.11,0c-.56-.2-1.11-.41-1.63-.62l-.08,0L52.32,22l-.1,0-.32-.14-.11,0-.32-.15-.08,0-.33-.16h0l0,0a3.18,3.18,0,0,0-.32-.16l0,0L50.31,21l0,0-.33-.18,0,0-.32-.18,0,0-.31-.19h0l-.3-.19,0,0a2.9,2.9,0,0,1-.29-.19l0,0-.28-.2h0a12.41,12.41,0,0,1-1.82-1.55h0L46.2,18v0a6.78,6.78,0,0,1-1-1.44h0c0-.08-.09-.16-.13-.25s0-.08,0-.12a.77.77,0,0,1-.07-.16.61.61,0,0,0-.05-.12l-.06-.16a.36.36,0,0,0,0-.11l-.06-.22a.14.14,0,0,0,0-.06L45,14.9l.06-.06.38-.4.06-.06L46,14l0,0a5.81,5.81,0,0,1,.46-.38l.08-.07.5-.38,0,0c.16-.12.33-.24.51-.35l.07,0,.56-.35.1-.06c.4-.24.81-.47,1.25-.7l.11,0,.65-.33.11-.05.67-.3,0,0c.23-.11.48-.21.72-.31L52,10.5c.25-.1.49-.2.75-.29l.08,0,.74-.26.11,0,.8-.27.15,0,.85-.25h0l.86-.25.16,0,.87-.23.15,0,.85-.2.09,0,.92-.2.19,0,.94-.19.11,0,.9-.16.16,0,1-.16.2,0,1-.14h0l1-.13.2,0,1-.11.19,0,1-.09h.12l1.06-.08h.23c.35,0,.71,0,1.07-.06h.13l1,0h.19l1.09,0h2.72L76,7h.19l1,0h.13c.36,0,.72,0,1.07.06h.23l1.06.08h.12l1,.09.19,0,1,.11.2,0,1,.13h0l1,.14.2,0,1,.16.16,0,.9.16.11,0,.94.19.19,0,.92.2.09,0,.85.2.15,0,.87.23.16,0,.86.24h0l.84.25.15,0,.8.27.11,0,.74.26.08,0c.26.09.5.19.75.29l.14.05c.25.1.49.2.72.31l.05,0,.67.3.11.05.65.33.11,0c.44.23.86.46,1.25.7l.1.06c.2.11.38.23.56.35l.08,0,.5.35.05,0,.5.38.08.07a5.81,5.81,0,0,1,.46.38l0,0,.41.38.06.06.38.4.06.06.35.42a.14.14,0,0,0,0,.06l-.06.22a.36.36,0,0,0,0,.11l-.06.16,0,.12a.77.77,0,0,1-.07.16.61.61,0,0,1-.05.12,2,2,0,0,1-.13.25h0A6.78,6.78,0,0,1,101,18v0l-.21.22h0a12.41,12.41,0,0,1-1.82,1.55h0l-.28.2,0,0a2.9,2.9,0,0,1-.29.19l0,0-.3.19h0l-.32.19,0,0-.32.18,0,0-.33.18,0,0-.34.18,0,0a3.18,3.18,0,0,0-.32.16l0,0h0l-.32.16-.09,0-.32.15-.11,0-.32.14-.1,0-.34.14-.08,0c-.52.21-1.07.42-1.63.62l-.11,0-.34.12-.16.05-.33.11-.18.06-.3.09h0l-.18.06-.27.08-.1,0-.15,0-.26.07-.14,0-.12,0-.25.06-.19.06-.34.08-.2.05-.22.06-.13,0-.19.05-.2,0-.19.05-.16,0-.22,0-.22.05-.12,0-.23.05-.25,0-.08,0-.26,0-.28.05h0l-.28.05-.32.06-.28.05-.36.07-.25,0-.6.1-.24,0-.39.06-.27,0L83,25l-.26,0h-.06l-.33,0-.23,0-.12,0-.3,0-.2,0-.18,0-.29,0-.16,0-.22,0-.3,0h-.12l-.27,0-.37,0-.31,0-.39,0-.3,0h0l-.35,0-.27,0h-.12l-.32,0h-.38l-.33,0h-3.9Z"/><g class="cls-3"><path class="cls-4" d="M73.57,4.67C55.3,4.67,40.5,11,40.5,18.88S55.3,33.1,73.57,33.1s33.07-6.36,33.07-14.22S91.84,4.67,73.57,4.67Zm0,26.18c-16.7,0-30.24-5.36-30.24-12s13.54-12,30.24-12,30.24,5.36,30.24,12S90.27,30.85,73.57,30.85Z"/><path class="cls-5" d="M106.47,17.41h0v0c0-.16-.08-.31-.13-.46l-1.17-4.1a5.13,5.13,0,0,0-.21-.74h0C102.64,5.53,89.47.5,73.57.5s-29.07,5-31.38,11.59h0a5.13,5.13,0,0,0-.21.74l-1.17,4.1c-.05.15-.09.3-.13.46v0h0a6.7,6.7,0,0,0-.17,1.47c0,7.86,14.8,14.22,33.07,14.22s33.07-6.36,33.07-14.22A6.7,6.7,0,0,0,106.47,17.41ZM73.57,6.92c13.56,0,25,3.53,28.88,8.4C101,21.11,88.6,25.63,73.57,25.63S46.18,21.11,44.69,15.32C48.53,10.45,60,6.92,73.57,6.92Z"/><path class="cls-6" d="M106.47,17.41h0v0c0-.16-.08-.31-.13-.46l-1.17-4.1a5.13,5.13,0,0,0-.21-.74h0a8.48,8.48,0,0,0-1.73-2.82v7H102.1c-2.53,5.33-14.34,9.36-28.53,9.36s-26-4-28.53-9.36H43.13v-6a7.69,7.69,0,0,0-.94,1.82h0a5.13,5.13,0,0,0-.21.74l-1.17,4.1c-.05.15-.09.3-.13.46v0h0a6.7,6.7,0,0,0-.17,1.47c0,7.86,14.8,14.22,33.07,14.22s33.07-6.36,33.07-14.22A6.7,6.7,0,0,0,106.47,17.41Z"/><path class="cls-7" d="M73.57.5C56,.5,41.83,6.61,41.83,14.15S56,27.79,73.57,27.79s31.74-6.11,31.74-13.64S91.1.5,73.57.5Zm0,25.13c-16,0-29-5.14-29-11.48s13-11.48,29-11.48,29,5.14,29,11.48S89.6,25.63,73.57,25.63Z"/></g><path class="cls-8" d="M73.57.5C56,.5,41.83,6.61,41.83,14.15S56,27.79,73.57,27.79s31.74-6.11,31.74-13.64S91.1.5,73.57.5Zm0,25.13c-16,0-29-5.14-29-11.48s13-11.48,29-11.48,29,5.14,29,11.48S89.6,25.63,73.57,25.63Z"/><path class="cls-9" d="M75,6.94h.45l1,0,.5,0,.94,0,.47,0,1.1.08.27,0,1.34.12.36,0,1,.11.36,0,.11,0,.86.11.45.07.92.14.34,0,1.23.22.26.06.94.19.41.09L89,8.6l.41.1.78.2.36.09,1.08.31.06,0,1,.3.34.12.68.23.36.13.64.24.33.13.74.31.18.07c.3.13.59.26.87.4l.25.12.54.27c.4.21.78.42,1.14.64l.49.3.2.13.66.45.16.12.46.36.21.17c.13.11.25.21.36.32l.2.18c.12.11.23.23.34.34l.16.17c.15.16.29.33.43.5h0a.14.14,0,0,0,0,.06c-.05.16-.1.33-.16.5l-.09.19-.12.28-.14.25a5.05,5.05,0,0,1-.36.58h0l-.1.15a7,7,0,0,1-.44.54v0l-.17.19-.14.15,0,0c-.22.22-.46.45-.71.66l-.11.1h0c-.26.23-.55.44-.85.66l-.16.11-.23.16-.2.13-.24.16-.29.17-.15.09-.29.17-.33.19-.11.05-.33.18-.39.2,0,0-.38.19-.45.2-.42.19-.51.21-.13.06c-.47.18-1,.37-1.45.54l-.12,0-.61.21-.45.14-.58.19-.44.12-.1,0L90,23.6l-.4.11-.2.05-.52.13-.35.09-.3.07-.51.11-.3.07-.39.08-.53.11-.22,0-.48.09-.69.13-.57.09-.7.11L83.3,25l-.1,0-.65.08-.49.07-.23,0-.61.07-.43.05-.31,0-.63.05-.36,0-.36,0-.68.05-.28,0-.4,0-.76,0h-.2l-.42,0-.91,0H75l-1.41,0V33.1c18.27,0,33.07-6.36,33.07-14.22,0-.12,0-.24,0-.37v0l0-.31v0h0l0-.14a5.4,5.4,0,0,0-.1-.58h0v0c0-.16-.08-.31-.13-.46h0l-1.17-4.1h0v0c0-.05,0-.09,0-.14s0-.13-.05-.19h0c0-.12-.07-.25-.12-.37h0l0,0s0-.1-.05-.15l0-.12c0-.06,0-.12-.08-.19l0-.07,0,0h0v0l0,0v0h0l-.05-.09a.91.91,0,0,0-.07-.14l-.06-.12,0,0v0l0-.05,0-.06v0l0,0,0-.08,0,0h0l-.08-.13-.11-.17,0,0,0-.06,0-.05,0-.07,0-.07,0,0-.06-.08h0l0,0-.13-.17h0l0,0-.06-.08-.1-.11,0-.05h0l-.09-.1,0,0,0,0h0l0,0L103,9l-.09-.1-.08-.08h0l0,0-.11-.11-.09-.08,0,0h0l-.17-.17-.14-.12,0,0-.08-.07-.07-.07-.06,0L101.93,8l0,0-.18-.16-.16-.12,0,0-.09-.07-.05,0,0,0-.08-.06,0,0-.2-.15-.17-.12-.08-.06L100.68,7h0l0,0-.07,0-.09-.06-.21-.14-.18-.12-.15-.1-.06,0h0l-.16-.1-.44-.27L99.07,6l0,0h0L99,6l-.15-.09-.21-.12-.24-.12-.1-.06-.09-.05h0l0,0L98,5.43l-.1,0-.23-.11-.24-.12-.07,0-.11-.06-.06,0-.06,0L97,4.94l-.06,0L96.7,4.8l-.25-.11,0,0-.11,0-.11,0-.11,0-.11,0,0,0-.27-.11-.25-.1h0l-.07,0-.2-.08L95,4.06l-.06,0h0l-.53-.19h0l-.22-.08-.34-.12h0l-.09,0-.15-.06-.19-.06-.1,0h0L93,3.34l-.31-.1h0l-.12,0-.11,0-.1,0-.16-.05h-.05L91.79,3l-.32-.09-.08,0-.14,0-.06,0h-.06l-.17,0-.1,0-.29-.08-.34-.09-.13,0-.12,0h-.06l-.12,0-.21-.06-.27-.06-.43-.11-.16,0h-.08L88,2,87.83,2l-.33-.07-.1,0h0l-.09,0-.16,0-.4-.08-.29-.05-.15,0-.19,0H86l-.15,0-.1,0-.39-.07L85,1.42,85,1.4l-.19,0h-.1l-.1,0-.15,0h-.06L84,1.25l-.3-.05H83.6l-.18,0-.19,0-.15,0h-.15l-.45-.05-.26,0H82.1L81.63.94h-.14L80.85.86h-.08l-.24,0-.5,0h-.29l-.23,0-.19,0h0L79,.7l-.44,0h-.45l-.22,0h-.09l-.32,0L77,.58h-1.1l-.47,0H73.57V6.92Z"/><path class="cls-2" d="M171.43,42.68v0c0-.13,0-.26,0-.39h0a6.17,6.17,0,0,0-.15-.84h0v0a5.44,5.44,0,0,0-.15-.54h0l-1.36-4.78h0c0-.14-.07-.28-.11-.42h0c0-.14-.09-.29-.14-.43h0a2.09,2.09,0,0,0-.08-.23l-.06-.15-.09-.21a1.11,1.11,0,0,1-.07-.16.47.47,0,0,1,0-.1h0l-.06-.1-.08-.16s0-.09-.07-.14l0,0,0,0-.09-.16-.11-.19,0,0-.09-.16-.13-.2-.11-.15-.14-.2-.12-.16-.15-.2-.12-.14-.17-.21-.11-.12-.41-.45-.09-.09-.2-.2-.15-.14-.2-.19-.16-.15-.2-.18-.17-.15-.22-.17-.18-.15-.22-.18-.19-.14-.23-.17-.2-.15-.23-.17-.21-.14L164,29l-.21-.14-.25-.16-.22-.13c-.16-.11-.34-.21-.51-.31l-.23-.14-.27-.15-.25-.14-.27-.15-.26-.14-.28-.14-.27-.14-.28-.14-.28-.13-.29-.14-.28-.13-.3-.13-.29-.13-.3-.13-.31-.13-.3-.13-.34-.13-.28-.12-.61-.23-.26-.09-.39-.15-.3-.1-.36-.12L155.5,25l-.36-.12-.33-.1-.36-.12-.33-.1-.37-.11-.33-.09-.38-.11-.34-.09-.39-.11L152,24l-.42-.1-.32-.08-.5-.12-.24-.06-.75-.17-.25-.05-.52-.12-.31-.06-.46-.09-.34-.07-.45-.08-.36-.07-.44-.07-.36-.06-.45-.08-.36-.06-.47-.07-.35-.05-.49-.07-.34,0-.53-.07-.31,0-.68-.08-.16,0-.85-.09-.27,0-.59-.06-.34,0-.53,0-.36,0-.52,0-.37,0-.51,0-.38,0-.52,0-.38,0-.52,0h-.38l-.54,0H130.7l-.55,0h-.37l-.53,0-.38,0-.51,0-.38,0-.51,0-.38,0-.51,0-.36,0-.54,0-.33,0-.59.06-.27,0-.85.09-.16,0-.69.08-.3,0-.53.07-.34,0-.49.07-.35.05-.47.07-.36.06-.45.08-.36.06-.45.07-.35.07-.45.08-.34.07-.46.09-.32.06-.52.12-.25.05-.74.17-.24.06-.51.12-.31.08-.42.1-.33.09-.4.11-.33.09-.38.11-.33.09-.38.11-.32.1-.37.12-.32.1-.36.12-.32.11-.36.12-.3.1-.39.15-.25.09-.62.23-.28.12-.34.13-.29.13-.32.13-.29.13-.3.13-.29.13-.29.13-.29.14-.27.13-.29.14-.27.14-.28.14-.25.14-.28.15-.24.14-.27.15-.23.14-.52.31-.21.13-.25.16-.22.14-.24.17-.21.14-.24.17-.2.15-.22.17-.19.14-.23.18-.18.15-.21.17-.17.15-.21.18-.16.15-.2.19-.14.14-.2.2-.09.09c-.15.15-.28.3-.42.45l-.1.12-.17.21-.12.14-.15.2-.12.16a1.43,1.43,0,0,0-.14.2l-.06.08h0l0,.07-.13.2-.1.16a2.25,2.25,0,0,0-.12.21.86.86,0,0,0-.1.16l-.11.2,0,0h0l-.06.12-.1.21-.07.15a.36.36,0,0,1,0,.09.69.69,0,0,0,0,.13l-.06.15-.09.23h0c0,.14-.09.29-.13.43h0c0,.14-.07.28-.1.42h0l-1.36,4.78h0c-.06.18-.11.36-.16.54v0h0a8.28,8.28,0,0,0-.16.84h0l0,.39v0c0,.14,0,.29,0,.43,0,9.16,17.27,16.58,38.57,16.58s38.56-7.42,38.56-16.58C171.44,43,171.44,42.82,171.43,42.68ZM132.05,51h-2.89l-.39,0h-.18l-.26,0-.38,0h-.14l-.31,0-.4,0H127l-.35,0-.44,0-.36,0-.44,0-.31,0H125l-.35,0-.26,0-.19,0-.34,0-.2,0-.24,0-.35,0-.14,0-.27,0-.38-.05h-.07l-.3,0-.42-.06-.32,0-.46-.07-.27,0-.7-.11-.3,0L119,49.8l-.34-.06-.36-.06-.33-.07h0l-.33-.06-.3-.06-.09,0L117,49.4l-.27-.06-.14,0-.26-.06-.25,0-.19,0-.22-.06-.23-.05-.23-.06L115,49l-.27-.07-.23-.06-.39-.1-.22-.06-.3-.08-.13,0-.17-.05-.3-.09-.18-.05-.11,0-.32-.1-.21-.06h0l-.36-.11-.21-.07-.38-.12L111,47.8l-.4-.13-.13,0c-.66-.23-1.29-.47-1.91-.72l-.08,0-.4-.17-.12-.05-.38-.16-.12-.05-.37-.18-.1,0-.38-.18h0l-.06,0-.37-.18,0,0-.4-.21,0,0-.38-.21,0,0-.37-.22,0,0-.37-.22,0,0-.34-.21,0,0-.33-.22,0,0-.33-.22,0,0a14.49,14.49,0,0,1-2.13-1.8l0,0-.24-.26h0a8.94,8.94,0,0,1-1.19-1.68h0l-.15-.29-.06-.15a1.42,1.42,0,0,1-.08-.18l-.06-.14a1.46,1.46,0,0,0-.07-.19s0-.09,0-.13,0-.17-.07-.25a.24.24,0,0,1,0-.08c.12-.16.26-.32.4-.48l.07-.08.44-.46a.23.23,0,0,0,.07-.07l.48-.44,0,0,.54-.45.1-.08.57-.43.06,0,.59-.41.09-.06.65-.41.12-.07c.46-.28,1-.55,1.46-.81l.12-.07.77-.37.12-.06.78-.35.06,0,.84-.35.17-.07c.28-.12.57-.23.87-.34l.09,0,.86-.3.14,0,.93-.31.18-.06,1-.3h0l1-.29.19-.05,1-.26.18,0,1-.23.1,0,1.07-.23.23-.05,1.09-.22.13,0,1-.19.19,0,1.13-.18.23,0,1.18-.17h0l1.2-.15.24,0,1.19-.12.21,0,1.14-.11h.14l1.24-.09.27,0,1.25-.07h.15l1.18,0H130c.42,0,.84,0,1.27,0h3.18l1.27,0H136l1.19,0h.15l1.25.07.27,0,1.23.09h.14l1.14.11.22,0,1.19.12.24,0,1.19.15h0l1.19.17.23,0,1.13.18.19,0,1.05.19.13,0,1.09.22.23.05,1.07.23.1,0,1,.23.18,0,1,.26.19.05,1,.29h0l1,.3.18.06.93.31.13,0,.86.3.1,0,.87.34.16.07.85.35.05,0c.27.11.53.23.78.35l.13.06.76.37.13.07c.51.26,1,.53,1.45.81l.12.07.66.41.08.06.59.41.06,0,.58.43a.39.39,0,0,0,.1.08l.54.45,0,0c.17.14.33.29.48.44l.07.07c.16.15.3.31.45.46l.06.08c.15.16.28.32.41.48s0,0,0,.08-.05.16-.07.25,0,.08-.05.13a1.46,1.46,0,0,1-.07.19.78.78,0,0,0-.05.14l-.08.18-.07.15-.14.29h0A9.42,9.42,0,0,1,164.81,42h0l-.24.26v0a15,15,0,0,1-2.13,1.8l0,0-.33.22,0,0-.34.22,0,0-.34.21,0,0-.36.22,0,0-.37.22,0,0-.38.21-.05,0-.39.21,0,0-.38.18-.06,0h0l-.37.18-.1,0-.38.18-.12.05-.38.16-.11.05-.4.17-.09,0c-.61.25-1.25.49-1.91.72l-.12,0-.4.13-.19.07-.38.12-.21.07-.35.11h-.05l-.2.06-.33.1-.1,0-.18.05-.3.09-.17.05-.14,0-.29.08-.23.06-.38.1-.24.06-.26.07-.15,0-.22.06-.24.05-.22.06-.18,0-.25,0-.26.06-.14,0-.28.06-.29.06-.09,0-.3.06-.33.06h0l-.32.07-.37.06-.33.06-.42.08-.29,0-.7.11-.28,0-.45.07-.32,0-.42.06-.31,0h-.06l-.38.05-.27,0-.15,0-.35,0-.23,0-.2,0-.34,0-.2,0-.25,0-.35,0h-.14l-.31,0-.44,0-.36,0-.45,0-.35,0h-.05l-.41,0-.31,0h-.14l-.37,0-.26,0H137l-.38,0h-4.55Z"/><g class="cls-3"><path class="cls-4" d="M132.88,26.53c-21.3,0-38.57,7.42-38.57,16.58s17.27,16.58,38.57,16.58,38.56-7.42,38.56-16.58S154.18,26.53,132.88,26.53Zm0,30.53c-19.48,0-35.27-6.24-35.27-14s15.79-13.95,35.27-13.95,35.27,6.25,35.27,14S152.36,57.06,132.88,57.06Z"/><path class="cls-5" d="M171.24,41.4h0v0a5.44,5.44,0,0,0-.15-.54l-1.36-4.78c-.07-.29-.15-.57-.25-.86h0c-2.69-7.65-18.05-13.52-36.59-13.52S99,27.54,96.28,35.19h0a6.9,6.9,0,0,0-.24.86l-1.36,4.78c-.06.18-.11.36-.16.54v0h0a7,7,0,0,0-.21,1.71c0,9.16,17.27,16.58,38.57,16.58s38.56-7.42,38.56-16.58A7.54,7.54,0,0,0,171.24,41.4ZM132.88,29.16c15.81,0,29.2,4.12,33.67,9.79-1.73,6.75-16.15,12-33.67,12S100.94,45.7,99.21,39C103.68,33.28,117.06,29.16,132.88,29.16Z"/><path class="cls-6" d="M171.24,41.4h0v0a5.44,5.44,0,0,0-.15-.54l-1.36-4.78c-.07-.29-.15-.57-.25-.86h0a9.87,9.87,0,0,0-2-3.29v8.17h-1.31C163.2,46.27,149.43,51,132.88,51s-30.32-4.7-33.27-10.9H97.38v-7a9.12,9.12,0,0,0-1.1,2.12h0a6.9,6.9,0,0,0-.24.86l-1.36,4.78c-.06.18-.11.36-.16.54v0h0a7,7,0,0,0-.21,1.71c0,9.16,17.27,16.58,38.57,16.58s38.56-7.42,38.56-16.58A7.54,7.54,0,0,0,171.24,41.4Z"/><path class="cls-7" d="M132.88,21.67c-20.44,0-37,7.13-37,15.92s16.57,15.91,37,15.91,37-7.13,37-15.91S153.32,21.67,132.88,21.67Zm0,29.3C114.18,51,99,45,99,37.59S114.18,24.2,132.88,24.2s33.84,6,33.84,13.39S151.57,51,132.88,51Z"/></g><path class="cls-8" d="M132.88,21.67c-20.44,0-37,7.13-37,15.92s16.57,15.91,37,15.91,37-7.13,37-15.91S153.32,21.67,132.88,21.67Zm0,29.3C114.18,51,99,45,99,37.59S114.18,24.2,132.88,24.2s33.84,6,33.84,13.39S151.57,51,132.88,51Z"/><path class="cls-9" d="M134.54,29.18h.53l1.14,0,.58,0,1.1.05.55,0q.65,0,1.29.09l.3,0,1.57.14.42.05,1.12.12.42.06h.12l1,.14.52.07,1.08.17.4.06,1.43.26.3.06,1.1.22.47.1.91.21.49.12.9.23.42.11,1.26.35.08,0,1.14.36.4.13.79.27.43.16.74.28.39.15c.29.12.58.23.86.36l.21.09,1,.45.3.15.62.32c.47.24.91.48,1.34.74l.57.35.24.15c.26.17.52.35.76.53a1.33,1.33,0,0,1,.19.14l.53.41.25.21.42.36.23.22q.21.19.39.39l.19.2c.18.19.34.38.5.58h0a.19.19,0,0,0,0,.07,4.36,4.36,0,0,1-.19.58c0,.08-.07.15-.1.23a1.87,1.87,0,0,1-.15.32c0,.1-.1.2-.15.3s-.27.45-.42.67v0l-.12.17q-.24.31-.51.63v0l-.21.23-.16.17,0,0c-.26.27-.54.52-.83.78l-.13.11h0c-.31.27-.64.52-1,.77l-.18.13-.28.19-.23.15-.28.18-.33.2L161,45l-.34.2-.39.21-.12.07-.39.21-.46.23,0,0-.45.22-.52.24-.49.22-.59.24-.16.07c-.55.22-1.11.43-1.69.64l-.14,0-.71.25L154,48l-.69.22-.5.14-.12,0-.63.17-.46.13-.24.06-.6.15-.42.1-.34.08-.6.14-.35.08-.45.09-.62.13-.26,0-.55.1-.81.15-.66.11-.82.12-.66.1h-.11l-.76.11-.58.07-.26,0-.71.08-.51,0-.35,0-.74.06-.42,0-.42,0-.79.06-.33,0-.47,0-.89.05h-.22l-.5,0-1,0H135l-.47,0h-1.65v8.72c21.3,0,38.56-7.42,38.56-16.58,0-.14,0-.29,0-.43v0l0-.36v0h0a.9.9,0,0,0,0-.16c0-.23-.07-.45-.12-.68h0v0a5.44,5.44,0,0,0-.15-.54h0l-1.36-4.78h0v0c0-.06,0-.11,0-.16l-.06-.23h0c0-.14-.09-.29-.14-.43h0s0,0,0,0l-.06-.17-.06-.15-.09-.21,0-.09,0-.06h0l0,0,0,0v0h0l-.06-.1-.08-.16s0-.09-.07-.14l0,0,0,0,0,0,0-.08,0,0,0-.05-.06-.1,0,0h0l-.09-.16-.13-.2,0,0a.35.35,0,0,1,0-.08l0,0-.06-.08-.06-.09,0,0-.07-.09h0l0-.06-.15-.2h0l0,0-.07-.09a1.34,1.34,0,0,1-.11-.14l-.05,0v0l-.11-.12,0,0,0,0h0l0,0c-.06-.08-.13-.15-.2-.23l-.11-.12-.09-.09h0l-.06-.05-.13-.14-.1-.09,0,0h0l-.2-.19-.16-.15,0,0-.1-.08-.08-.08-.07,0-.08-.07,0,0-.22-.17-.18-.15-.06-.05-.1-.08-.06-.05,0,0-.09-.07-.06,0-.23-.17-.2-.15-.1-.07-.1-.08,0,0h0l-.09-.06-.1-.07L164,29l-.21-.14-.18-.11-.06,0h0l0,0-.19-.11c-.16-.11-.34-.21-.51-.31l-.2-.12,0,0h0l-.08,0-.17-.09-.25-.14-.27-.15-.13-.07-.1,0,0,0,0,0-.13-.06-.11-.06-.27-.14-.28-.14-.08,0-.13-.07-.07,0-.07,0-.15-.07-.07,0-.28-.13-.3-.13,0,0-.13-.06-.12-.05-.13-.06-.13-.06h0l-.31-.13-.3-.13h0l-.08,0-.25-.09-.2-.09-.07,0h0l-.61-.23h0l-.26-.09-.39-.15h0l-.09,0-.19-.06-.21-.07-.12,0h0L155.5,25l-.36-.12-.06,0-.14,0-.13,0-.12,0-.18-.06-.06,0-.33-.1-.37-.11-.09,0-.17-.05-.07,0-.07,0-.19-.06-.12,0-.34-.09-.39-.11-.16,0L152,24H152l-.15,0-.24-.06-.32-.08-.5-.12-.19,0h-.09l-.71-.16-.25-.05-.38-.09-.12,0h0l-.11,0-.18,0-.46-.09-.34-.07-.19,0-.21,0h-.11l-.17,0-.13,0-.44-.07-.36-.06-.11,0-.22,0-.12,0-.11,0-.18,0-.07,0-.47-.07-.35-.05h-.06l-.21,0-.22,0-.17,0-.14,0h0l-.53-.07-.31,0h0l-.12,0-.54-.06h-.16l-.76-.08h-.09l-.27,0-.59-.06h-.15l-.19,0-.27,0-.22,0h0l-.36,0-.52,0h-.88l-.38,0-.52,0H135.6l-.54,0h-2.18v7.49Z"/><path class="cls-2" d="M98.27,60a.09.09,0,0,1,0-.05c0-.17,0-.33,0-.5h0a10.23,10.23,0,0,0-.2-1.08h0v0c-.05-.23-.12-.46-.19-.69h0l-1.73-6h0c0-.18-.08-.36-.13-.54h0a5.6,5.6,0,0,0-.17-.54h0c0-.1-.07-.19-.11-.29L95.6,50l-.12-.27-.09-.21-.06-.12h0a.83.83,0,0,0-.07-.13,1.24,1.24,0,0,0-.1-.2,1.62,1.62,0,0,0-.1-.18l0,0,0,0-.12-.21c0-.08-.09-.16-.14-.24l0,0-.12-.2c-.05-.08-.11-.16-.16-.25a2.43,2.43,0,0,1-.14-.2l-.18-.25-.15-.2L93.8,47l-.16-.18-.21-.26-.13-.15c-.17-.2-.35-.39-.53-.57l-.12-.13-.25-.25-.18-.18L92,45.05l-.21-.19-.26-.23-.21-.19L91,44.22a2.11,2.11,0,0,0-.23-.19l-.27-.22-.25-.19L90,43.4l-.25-.18-.3-.21a2.48,2.48,0,0,0-.26-.19l-.31-.21-.27-.17-.33-.21L88,42.06l-.65-.39-.3-.18-.34-.19-.31-.18L86,40.94l-.33-.18-.35-.18L85,40.41l-.36-.18-.35-.17-.37-.17-.36-.17-.37-.17-.38-.17-.37-.16-.4-.17-.37-.15-.44-.17-.35-.14c-.26-.11-.52-.2-.78-.3l-.32-.12L79.3,38l-.38-.13-.46-.16-.4-.14-.45-.15-.41-.13-.46-.14L76.32,37l-.47-.14-.42-.12L75,36.61l-.43-.11-.5-.14-.41-.11-.54-.14-.4-.1L72,35.86l-.3-.07-1-.22-.31-.06-.66-.15-.4-.08-.59-.11-.43-.09-.57-.1-.44-.08-.57-.1-.46-.08-.57-.09-.46-.08-.59-.09-.45-.06-.61-.09-.44-.06-.67-.08-.39-.05-.86-.1-.21,0L60,33.88l-.35,0-.74-.07-.43,0-.67-.05-.46,0-.66,0-.47,0-.65,0-.48,0-.65,0-.48,0-.67,0-.47,0h-.7l-.45,0H47.08l-.45,0h-.7l-.47,0-.66,0-.49,0-.65,0-.48,0-.65,0-.47,0-.66,0-.45,0-.68.05-.43,0-.74.07-.35,0L37.68,34l-.21,0-.86.1-.39.05-.67.08-.44.06-.61.09-.45.06-.59.09-.46.08-.57.09L32,34.8l-.56.1L31,35l-.57.1-.43.09-.59.11-.4.08-.66.15-.31.06-.95.22-.3.07-.64.15-.4.1-.53.14-.42.11-.5.14-.43.11-.48.14-.42.12-.47.14-.42.13-.46.14-.41.13-.45.15-.4.14-.46.16-.38.13-.5.18-.32.12c-.26.1-.52.19-.78.3l-.35.14-.44.17-.37.15-.4.17-.37.16-.38.17-.37.17-.36.17-.37.17-.35.17-.36.18-.34.17-.35.18-.33.18-.34.18-.32.18-.34.19-.29.18-.66.39-.26.17-.33.21-.27.17-.31.21L9.36,43l-.3.21-.25.18-.29.22-.24.19L8,44a2.11,2.11,0,0,0-.23.19l-.27.22-.22.19L7,44.86a1.8,1.8,0,0,0-.2.19l-.26.23-.18.18-.25.25L6,45.84c-.18.18-.36.37-.53.57l-.13.15-.21.26c0,.06-.11.12-.15.18l-.2.25-.15.2-.18.25-.07.1h0l-.06.1-.17.25L4,48.36l-.15.25-.12.21c0,.08-.09.17-.14.26l0,.05h0l-.07.15c0,.09-.09.18-.13.26l-.09.2,0,.11s0,.11-.07.17l-.07.18c0,.1-.08.19-.11.29H3c-.06.18-.12.36-.17.54h0c0,.18-.09.36-.13.54h0L1,57.64H1c-.07.23-.14.46-.19.69v0h0a8.15,8.15,0,0,0-.19,1.08h0c0,.17,0,.33,0,.5V60c0,.18,0,.36,0,.55,0,11.61,21.89,21,48.89,21s48.89-9.41,48.89-21C98.28,60.35,98.28,60.17,98.27,60ZM48.34,70.5h-2.6l-.52,0h-.55l-.48,0H44l-.33,0-.47,0H43l-.39,0-.52,0H42l-.44,0-.56,0-.46,0-.56,0-.39,0-.18,0L39,70l-.33,0-.24,0-.43,0-.26,0-.3,0-.44,0-.18,0-.34,0L36,69.65h-.09l-.38,0L35,69.52l-.4-.06L34,69.37l-.35-.05-.89-.14-.37-.07L31.83,69l-.42-.08-.47-.08-.41-.08h-.05l-.41-.08-.38-.08-.12,0-.37-.08-.35-.08-.17,0-.33-.08L28,68.25l-.23,0-.28-.07-.3-.07L26.93,68l-.18,0-.34-.08-.29-.08-.49-.13-.29-.07-.37-.1-.17,0-.22-.06-.38-.11L24,67.21l-.13,0L23.43,67,23.17,67l-.06,0-.45-.14-.27-.09-.48-.15-.23-.08-.5-.17L21,66.26c-.83-.29-1.64-.6-2.42-.91l-.11,0-.5-.21L17.83,65l-.48-.21-.15-.07-.48-.22-.12-.06-.48-.22h0l-.08,0L15.56,64l-.06,0-.5-.26-.06,0-.48-.26-.06,0-.47-.27,0,0-.46-.28,0,0-.44-.27,0,0-.43-.27-.05,0L12,61.85l0,0a19,19,0,0,1-2.7-2.29v0l-.31-.33h0a11.43,11.43,0,0,1-1.51-2.13h0c-.07-.12-.13-.24-.19-.36a1.08,1.08,0,0,1-.08-.19,2.14,2.14,0,0,1-.1-.22L7,56.09l-.09-.25-.06-.16-.09-.32,0-.1.52-.61.09-.09A7.7,7.7,0,0,1,7.87,54L8,53.88c.19-.19.4-.38.61-.56l0,0,.68-.57.13-.1c.23-.19.48-.37.73-.56l.07-.05L11,51.5l.11-.07c.27-.18.54-.36.83-.53l.15-.09c.58-.35,1.2-.69,1.84-1l.17-.09c.31-.16.63-.32,1-.47l.16-.08,1-.45.07,0,1.07-.45.21-.08c.36-.15.73-.29,1.11-.43l.12-.05,1.08-.39.18-.06,1.17-.39.23-.08,1.25-.38h0L23.94,46l.24-.07,1.28-.33.22-.06,1.26-.3.13,0,1.36-.29.28-.06,1.39-.28.16,0,1.33-.24.24,0L33.26,44l.3,0,1.5-.22h0l1.51-.19.31,0,1.51-.16.27,0,1.45-.14h.18l1.56-.12.34,0L43.79,43H44l1.5-.06h.29l1.61,0h.34l1.67,0,1.68,0h.33l1.61,0h.29l1.5.06H55l1.59.09.34,0,1.56.12h.18l1.45.14.27,0,1.51.16.31,0,1.51.19h0l1.5.22.3,0,1.43.23.24,0,1.33.24.16,0,1.39.28.29.06,1.35.29.13,0,1.26.3.23.06,1.27.33.25.07,1.27.36h0l1.24.38.23.08,1.18.39.17.06,1.08.39.13.05,1.1.43.21.08,1.07.45.07,0,1,.45.16.08,1,.47.16.09c.64.33,1.26.67,1.84,1l.15.09c.29.17.56.35.83.53l.11.07.75.51.07.05c.25.19.5.37.73.56l.13.1.68.57,0,0c.21.18.41.37.6.56l.09.09a7.7,7.7,0,0,1,.56.59l.09.09c.18.21.36.41.52.61l0,.1-.09.32-.06.16-.09.25a1.34,1.34,0,0,1-.07.18l-.09.22-.09.19c-.06.12-.12.24-.19.36h0a11,11,0,0,1-1.51,2.13h0l-.31.33v0a18.43,18.43,0,0,1-2.7,2.29l0,0-.41.29-.06,0-.43.27,0,0-.44.27,0,0-.46.28-.05,0-.47.27-.06,0-.48.26-.06,0-.5.26-.06,0-.47.23-.08,0h0l-.47.22-.13.06-.48.22-.15.07L81,65l-.15.06-.5.21-.11,0c-.78.31-1.59.62-2.42.91l-.16.06-.5.17-.24.08-.48.15-.27.09-.45.14-.06,0-.26.07-.41.13-.13,0-.23.06-.38.11-.21.06-.18,0-.37.1-.29.07-.49.13-.29.08L72,68l-.18,0-.29.07-.3.07L71,68.2l-.23,0-.32.07-.33.08-.17,0-.35.08-.37.08-.11,0-.39.08-.41.08h0l-.41.08-.47.08L67,69l-.53.09-.37.07-.89.14-.35.05-.58.09-.4.06-.54.07-.38,0h-.08l-.49.07-.34,0-.18,0-.44,0-.3,0-.26,0-.43,0-.24,0-.33,0-.44,0-.18,0-.39,0-.56,0-.46,0-.56,0-.44,0h-.07l-.52,0-.39,0h-.18l-.47,0-.33,0h-.24l-.48,0h-.55l-.52,0h-4.7Z"/><g class="cls-3"><path class="cls-4" d="M49.39,39.52c-27,0-48.89,9.41-48.89,21s21.89,21,48.89,21,48.89-9.41,48.89-21S76.39,39.52,49.39,39.52Zm0,38.7C24.7,78.22,4.68,70.3,4.68,60.54s20-17.69,44.71-17.69S94.1,50.77,94.1,60.54,74.08,78.22,49.39,78.22Z"/><path class="cls-5" d="M98,58.36h0v0c-.05-.23-.12-.46-.19-.69l-1.73-6a8.43,8.43,0,0,0-.31-1.09h0c-3.41-9.7-22.88-17.13-46.39-17.13S6.41,40.79,3,50.49H3a8.43,8.43,0,0,0-.31,1.09L1,57.64c-.07.23-.14.46-.19.69v0h0A9.42,9.42,0,0,0,.5,60.54c0,11.61,21.89,21,48.89,21s48.89-9.41,48.89-21A9.42,9.42,0,0,0,98,58.36ZM49.39,42.85c20,0,37,5.22,42.69,12.41C89.88,63.82,71.61,70.5,49.39,70.5S8.9,63.82,6.7,55.26C12.38,48.07,29.34,42.85,49.39,42.85Z"/><path class="cls-6" d="M98,58.36h0v0c-.05-.23-.12-.46-.19-.69l-1.73-6a8.43,8.43,0,0,0-.31-1.09h0a12.8,12.8,0,0,0-2.56-4.17V56.68H91.56C87.83,64.55,70.37,70.5,49.39,70.5S11,64.55,7.22,56.68H4.39V47.8A11.29,11.29,0,0,0,3,50.49H3a8.43,8.43,0,0,0-.31,1.09L1,57.64c-.07.23-.14.46-.19.69v0h0A9.42,9.42,0,0,0,.5,60.54c0,11.61,21.89,21,48.89,21s48.89-9.41,48.89-21A9.42,9.42,0,0,0,98,58.36Z"/><path class="cls-7" d="M49.39,33.36c-25.91,0-46.92,9-46.92,20.17s21,20.17,46.92,20.17,46.92-9,46.92-20.17S75.3,33.36,49.39,33.36Zm0,37.14c-23.7,0-42.91-7.6-42.91-17s19.21-17,42.91-17,42.91,7.6,42.91,17S73.09,70.5,49.39,70.5Z"/></g><path class="cls-8" d="M49.39,33.36c-25.91,0-46.92,9-46.92,20.17s21,20.17,46.92,20.17,46.92-9,46.92-20.17S75.3,33.36,49.39,33.36Zm0,37.14c-23.7,0-42.91-7.6-42.91-17s19.21-17,42.91-17,42.91,7.6,42.91,17S73.09,70.5,49.39,70.5Z"/><path class="cls-9" d="M51.5,42.87l.67,0,1.44,0,.74,0,1.39.07.7,0,1.63.12.39,0q1,.08,2,.18l.54.06,1.42.16.53.06.16,0,1.27.17L65,44l1.37.21.5.08c.61.1,1.21.21,1.81.33l.38.07,1.4.28.6.14,1.15.26.61.14,1.15.3.53.13,1.6.45.1,0,1.45.45.5.17,1,.35.54.19.94.36.49.19,1.09.45.27.11c.44.19.86.39,1.28.59l.38.18.79.4c.59.31,1.15.62,1.69.94l.72.45a3,3,0,0,1,.3.19c.34.22.67.44,1,.67l.24.18.67.52a3.88,3.88,0,0,1,.31.26c.19.15.36.31.54.46l.29.28c.17.16.34.33.5.5l.23.24c.23.25.44.49.64.74h0l0,.09a7.07,7.07,0,0,1-.24.74c0,.09-.08.19-.12.29s-.12.27-.19.41-.13.25-.2.38a9.72,9.72,0,0,1-.53.84v0l-.15.21c-.2.27-.42.54-.65.81h0l-.26.3-.21.22,0,0c-.32.33-.67.66-1,1l-.16.14,0,0c-.39.33-.82.65-1.26,1l-.23.16-.35.25-.29.19-.36.23-.42.25-.23.14-.43.25-.49.27-.15.09-.5.26-.57.29-.07,0-.57.28-.66.3L81,65l-.76.31-.2.08c-.69.28-1.4.55-2.14.81l-.17.06-.9.31-.67.21-.86.27-.65.19-.14,0-.8.22-.59.16-.3.08-.76.19-.53.13-.44.1-.75.17-.45.1-.57.12-.79.16-.32.06-.7.14-1,.18-.84.14-1,.16-.83.12-.14,0-1,.13-.74.09-.33,0-.9.1-.64.07-.45,0-.93.09-.53.05-.54,0-1,.07-.42,0-.6,0c-.37,0-.74,0-1.12.06h-.29l-.63,0-1.33,0h-.74c-.69,0-1.39,0-2.09,0V81.56c27,0,48.89-9.41,48.89-21,0-.19,0-.37,0-.55a.09.09,0,0,1,0-.05c0-.15,0-.31,0-.46v0h0c0-.07,0-.14,0-.21a8.15,8.15,0,0,0-.16-.86h0v0c-.05-.23-.12-.46-.19-.69h0l-1.73-6h0a.09.09,0,0,0,0-.05,1.46,1.46,0,0,0,0-.2c0-.1,0-.19-.07-.29h0a5.6,5.6,0,0,0-.17-.54h0l0-.07a1.8,1.8,0,0,0-.08-.21L95.6,50c0-.1-.08-.18-.12-.27a.37.37,0,0,0,0-.11l0-.08v0l0,0,0-.06v0h0a.83.83,0,0,0-.07-.13,1.24,1.24,0,0,0-.1-.2,1.62,1.62,0,0,0-.1-.18l0,0,0,0,0-.07a.93.93,0,0,1,0-.1l0,0,0-.06a.75.75,0,0,1-.07-.12l0-.06h0l-.12-.2c-.05-.08-.11-.16-.16-.25l0,0-.06-.1-.05-.07a.36.36,0,0,1-.07-.1l-.09-.12,0,0-.09-.12h0L94,47.25,93.8,47h0l-.05-.06-.1-.11a1.15,1.15,0,0,0-.14-.17l-.06-.08h0l-.13-.15-.06-.06,0,0h0l0-.06L92.91,46l-.14-.15-.12-.13h0l-.06-.07-.18-.17-.12-.12,0-.05h0L92,45l-.21-.18,0,0-.12-.11-.11-.09-.08-.07-.1-.09,0,0L91,44.22a2.11,2.11,0,0,0-.23-.19L90.71,44l-.13-.11-.07,0-.06,0-.12-.09-.07-.06L90,43.4l-.25-.18-.12-.09-.14-.1,0,0,0,0-.11-.07-.13-.1-.31-.21-.27-.17-.23-.15-.08,0h0L88,42.06l-.65-.39-.25-.15,0,0h0l-.1-.06-.22-.12-.31-.18L86,40.94l-.16-.09-.13-.07,0,0,0,0-.16-.09-.14-.07L85,40.41l-.36-.18-.1,0-.17-.08-.08,0-.1-.05L84,39.93l-.09,0-.36-.17-.37-.17,0,0L83,39.45l-.15-.07-.16-.07-.17-.07,0,0-.4-.17-.37-.15h0l-.11,0-.31-.12L81,38.62l-.09,0h0l-.77-.3h0l-.32-.12L79.3,38h0l-.13,0-.23-.08-.27-.1-.15,0h0l-.4-.14-.45-.15-.07,0-.18-.06-.16,0L77,37.23l-.22-.07-.08,0L76.32,37l-.47-.14-.12,0-.21-.06-.09,0-.09,0-.24-.07-.15,0-.43-.11-.5-.14-.2,0-.17-.05h-.09l-.18-.05-.31-.08-.4-.09L72,35.86l-.24-.06h-.11l-.9-.21-.31-.06L70,35.4l-.16,0h0l-.14,0-.23,0-.59-.11-.43-.09-.23,0-.27,0h-.07l-.07,0-.22,0-.15,0-.57-.1-.46-.08-.13,0-.29-.05-.15,0-.14,0-.22,0-.1,0-.59-.09-.45-.06h-.07l-.26,0-.28,0-.22,0-.17,0h-.05l-.67-.08-.39-.05h0l-.15,0L61.31,34l-.17,0h0l-1-.1H60l-.35,0-.74-.07h-.19l-.24,0-.35,0-.27,0h0l-.46,0-.66,0h-.08l-.24,0h-.34l-.33,0H55.6l-.48,0-.65,0H53.32l-.47,0H49.39v9.49Z"/></g></g></g></svg>