<svg xmlns="http://www.w3.org/2000/svg" viewBox="0 0 101.35 89.54"><defs><style>.cls-1{fill:#e8daca;}.cls-2{fill:#f2eae1;}.cls-3{fill:#efc84d;}.cls-4{fill:#e5ad48;}.cls-5{fill:#f6db6f;}</style></defs><g id="Camada_2" data-name="Camada 2"><g id="MOLHOS"><path class="cls-1" d="M50.67,66.28C24.66,66.28,3.25,53.45.36,37,.7,45.24,3,73.52,18.33,81.51c8.54,5,19.89,8,32.34,8,12.82,0,24.46-3.22,33.06-8.46,13.56-11.34,16.56-36,17.19-43.83C97.82,53.61,76.53,66.28,50.67,66.28Z"/><path class="cls-2" d="M50.67,0C22.69,0,0,14.84,0,33.14A22,22,0,0,0,.36,37c2.89,16.5,24.3,29.33,50.31,29.33,25.86,0,47.15-12.67,50.25-29a22.56,22.56,0,0,0,.43-4.11C101.35,14.84,78.66,0,50.67,0Zm.06,61.89h-.06l-.56,0c-1.3,0-2.59,0-3.86-.12-.71,0-1.41-.12-2.12-.18s-1.47-.12-2.19-.21-1.61-.23-2.4-.35c-.59-.09-1.17-.17-1.75-.28-.85-.15-1.69-.34-2.52-.52-.48-.11-1-.21-1.45-.33-.87-.22-1.73-.45-2.59-.7l-1.16-.35c-.9-.28-1.78-.58-2.65-.9l-.86-.33c-.93-.35-1.83-.72-2.71-1.12l-.51-.24c-1-.45-1.91-.91-2.82-1.4h0c-9.72-5.27-15.89-13-15.89-21.69,0-15.88,20.62-28.75,46.05-28.75S96.59,17.18,96.71,33a1.72,1.72,0,0,0,.07.21C96.71,49.06,76.12,61.89,50.73,61.89Z"/><path class="cls-1" d="M31.81,59.33l-.58-.15c.86.25,1.72.48,2.59.7l-.29-.08C33,59.65,32.38,59.5,31.81,59.33Z"/><path class="cls-1" d="M40.15,61.1,39.54,61c.79.12,1.59.25,2.4.35h-.1C41.27,61.28,40.71,61.18,40.15,61.1Z"/><path class="cls-1" d="M24.37,56.7l-.52-.22c.88.4,1.78.77,2.71,1.12l-.6-.25Z"/><path class="cls-1" d="M28,58.12l-.56-.19c.87.32,1.75.62,2.65.9l-.42-.15C29.08,58.5,28.53,58.31,28,58.12Z"/><path class="cls-1" d="M21,55.08l-.48-.24c.91.49,1.85.95,2.82,1.4-.29-.13-.56-.28-.85-.42C22,55.58,21.49,55.34,21,55.08Z"/><path class="cls-1" d="M50.67,61.89h0l-.59,0Z"/><path class="cls-1" d="M17.9,53.28c-.57-.35-1.09-.73-1.63-1.11s-.82-.56-1.2-.85c-.58-.44-1.11-.91-1.65-1.37s-.85-.74-1.25-1.12c-.62-.6-1.23-1.2-1.78-1.82-.31-.35-.57-.72-.85-1.07s-.71-.87-1-1.32-.51-.8-.76-1.2-.53-.86-.76-1.3-.41-.85-.6-1.28S6,40,5.85,39.5s-.29-.88-.42-1.33c-.07-.26-.18-.52-.24-.79a.15.15,0,0,0,.06,0,18.65,18.65,0,0,1-.57-4.22c0-4.54,9.56-16.9,25.41-21.27,5.26,2.31,18-3.71,30-.44,14.82,3,24.17,3.38,30.32,9.68a.06.06,0,0,1,0,0C94,23.57,95.31,28.23,96.71,33,96.59,17.18,76,4.39,50.67,4.39S4.62,17.26,4.62,33.14c0,8.67,6.17,16.42,15.89,21.69-.43-.23-.83-.49-1.25-.74S18.34,53.56,17.9,53.28Z"/><path class="cls-1" d="M35.87,60.33l-.6-.12c.83.18,1.67.37,2.52.52l-.18,0C37,60.58,36.45,60.46,35.87,60.33Z"/><path class="cls-1" d="M44.76,61.62l-.63,0c.71.06,1.41.14,2.12.18h0C45.73,61.72,45.25,61.66,44.76,61.62Z"/><path class="cls-3" d="M60.13,11.5c-12-3.27-24.78,2.75-30,.44C14.24,16.31,4.68,28.67,4.68,33.21a18.65,18.65,0,0,0,.57,4.22C11.72,43.25,21.55,47.51,33,49.11a10.72,10.72,0,0,0,10.74-5.78c7.35-13.2,57.65,4.38,46.73-22.15C84.3,14.88,75,14.53,60.13,11.5ZM20.6,40.67c-1.38,0-2.51-.5-2.51-1.12s1.13-1.11,2.51-1.11,2.51.5,2.51,1.11S22,40.67,20.6,40.67ZM75.21,27.94c1.39,0,2.51.5,2.51,1.12s-1.12,1.12-2.51,1.12-2.51-.5-2.51-1.12S73.83,27.94,75.21,27.94ZM69.37,20c1.39,0,2.51.49,2.51,1.11s-1.12,1.12-2.51,1.12-2.51-.5-2.51-1.12S68,20,69.37,20ZM66.86,33.14c0,.62-1.12,1.12-2.51,1.12s-2.51-.5-2.51-1.12S63,32,64.35,32,66.86,32.52,66.86,33.14ZM61,21.14c1.38,0,2.51.5,2.51,1.12S62.4,23.37,61,23.37s-2.52-.5-2.52-1.11S59.63,21.14,61,21.14ZM44,15.83c1.39,0,2.51.5,2.51,1.12S45.38,18.07,44,18.07s-2.51-.5-2.51-1.12S42.61,15.83,44,15.83ZM42.37,29.06c1.39,0,2.51.5,2.51,1.12s-1.12,1.11-2.51,1.11-2.51-.5-2.51-1.11S41,29.06,42.37,29.06ZM27.58,17c1.39,0,2.51.5,2.51,1.12S29,19.18,27.58,19.18s-2.51-.5-2.51-1.11S26.19,17,27.58,17Zm-2.51,11c1.39,0,2.51.5,2.51,1.12s-1.12,1.12-2.51,1.12-2.51-.5-2.51-1.12S23.68,27.94,25.07,27.94Z"/><path class="cls-3" d="M9.54,45.94c.28.35.54.72.85,1.07C10.08,46.66,9.82,46.29,9.54,45.94Z"/><path class="cls-3" d="M15.07,51.32c.38.29.8.57,1.2.85C15.87,51.89,15.45,51.61,15.07,51.32Z"/><path class="cls-3" d="M7.76,43.42c.25.4.48.81.76,1.2C8.24,44.23,8,43.82,7.76,43.42Z"/><path class="cls-3" d="M6.4,40.84c.19.43.38.86.6,1.28C6.78,41.7,6.59,41.27,6.4,40.84Z"/><path class="cls-3" d="M5.43,38.17c.13.45.26.89.42,1.33C5.69,39.06,5.56,38.62,5.43,38.17Z"/><path class="cls-3" d="M17.9,53.28c.44.28.91.55,1.36.81C18.81,53.83,18.34,53.56,17.9,53.28Z"/><path class="cls-3" d="M28,58.12c.55.19,1.1.38,1.67.56C29.08,58.5,28.53,58.31,28,58.12Z"/><path class="cls-3" d="M13.42,50c-.43-.37-.85-.74-1.25-1.12C12.57,49.21,13,49.58,13.42,50Z"/><path class="cls-3" d="M21,55.08c.49.26,1,.5,1.49.74C22,55.58,21.49,55.34,21,55.08Z"/><path class="cls-3" d="M40.15,61.1c.56.08,1.12.18,1.69.25C41.27,61.28,40.71,61.18,40.15,61.1Z"/><path class="cls-3" d="M35.87,60.33c.58.13,1.15.25,1.74.36Q36.73,60.53,35.87,60.33Z"/><path class="cls-3" d="M31.81,59.33c.57.17,1.14.32,1.72.47C33,59.65,32.38,59.5,31.81,59.33Z"/><path class="cls-3" d="M44.76,61.62c.49,0,1,.1,1.46.13C45.73,61.72,45.25,61.66,44.76,61.62Z"/><path class="cls-3" d="M24.37,56.7l1.59.65Z"/><path class="cls-4" d="M96.78,33.21a1.72,1.72,0,0,1-.07-.21c-1.4-4.77-2.75-9.43-6.27-11.86a.06.06,0,0,0,0,0c10.92,26.53-39.38,9-46.73,22.15A10.72,10.72,0,0,1,33,49.11c-11.43-1.6-21.26-5.86-27.73-11.68a.15.15,0,0,1-.06,0c.06.27.17.53.24.79.13.45.26.89.42,1.33s.35.9.55,1.34.38.86.6,1.28.5.87.76,1.3.48.81.76,1.2.67.88,1,1.32.54.72.85,1.07c.55.62,1.16,1.22,1.78,1.82.4.38.82.75,1.25,1.12s1.07.93,1.65,1.37c.38.29.8.57,1.2.85s1.06.76,1.63,1.11.91.55,1.36.81.82.51,1.25.74h0l.48.24c.49.26,1,.5,1.49.74.29.14.56.29.85.42l.51.24.52.22,1.59.65.6.25.86.33.56.19c.55.19,1.1.38,1.67.56l.42.15,1.16.35.58.15c.57.17,1.14.32,1.72.47l.29.08c.48.12,1,.22,1.45.33l.6.12q.85.2,1.74.36l.18,0c.58.11,1.16.19,1.75.28l.61.09c.56.08,1.12.18,1.69.25h.1c.72.09,1.46.14,2.19.21l.63,0c.49,0,1,.1,1.46.13h0c1.27.08,2.56.11,3.86.12l.59,0h0C76.12,61.89,96.71,49.06,96.78,33.21Z"/><path class="cls-5" d="M75.21,30.18c1.39,0,2.51-.5,2.51-1.12s-1.12-1.12-2.51-1.12-2.51.5-2.51,1.12S73.83,30.18,75.21,30.18Z"/><path class="cls-5" d="M25.07,30.18c1.39,0,2.51-.5,2.51-1.12s-1.12-1.12-2.51-1.12-2.51.5-2.51,1.12S23.68,30.18,25.07,30.18Z"/><path class="cls-5" d="M27.58,19.18c1.39,0,2.51-.5,2.51-1.11S29,17,27.58,17s-2.51.5-2.51,1.12S26.19,19.18,27.58,19.18Z"/><path class="cls-5" d="M69.37,22.26c1.39,0,2.51-.5,2.51-1.12S70.76,20,69.37,20s-2.51.49-2.51,1.11S68,22.26,69.37,22.26Z"/><path class="cls-5" d="M42.37,31.29c1.39,0,2.51-.5,2.51-1.11s-1.12-1.12-2.51-1.12-2.51.5-2.51,1.12S41,31.29,42.37,31.29Z"/><path class="cls-5" d="M44,18.07c1.39,0,2.51-.5,2.51-1.12S45.38,15.83,44,15.83s-2.51.5-2.51,1.12S42.61,18.07,44,18.07Z"/><path class="cls-5" d="M61,23.37c1.38,0,2.51-.5,2.51-1.11S62.4,21.14,61,21.14s-2.52.5-2.52,1.12S59.63,23.37,61,23.37Z"/><path class="cls-5" d="M61.84,33.14c0,.62,1.12,1.12,2.51,1.12s2.51-.5,2.51-1.12S65.74,32,64.35,32,61.84,32.52,61.84,33.14Z"/><path class="cls-5" d="M20.6,38.44c-1.38,0-2.51.5-2.51,1.11s1.13,1.12,2.51,1.12,2.51-.5,2.51-1.12S22,38.44,20.6,38.44Z"/></g></g></svg>