<svg xmlns="http://www.w3.org/2000/svg" xmlns:xlink="http://www.w3.org/1999/xlink" viewBox="0 0 182.5 105.88"><defs><style>.cls-1{isolation:isolate;}.cls-2{fill:#705342;stroke:#fff;stroke-miterlimit:10;stroke-width:4px;}.cls-3{opacity:0.5;mix-blend-mode:multiply;}.cls-4{fill:url(#Nueva_muestra_de_degradado_6);}.cls-5{fill:url(#Nueva_muestra_de_degradado_6-2);}.cls-6{fill:url(#Nueva_muestra_de_degradado_6-3);}.cls-7{fill:url(#Nueva_muestra_de_degradado_6-4);}.cls-8{fill:url(#Nueva_muestra_de_degradado_6-5);}.cls-9{fill:url(#Nueva_muestra_de_degradado_6-6);}.cls-10{fill:url(#Nueva_muestra_de_degradado_6-7);}.cls-11{fill:url(#Nueva_muestra_de_degradado_6-8);}.cls-12{fill:url(#Nueva_muestra_de_degradado_6-9);}.cls-13{fill:url(#Nueva_muestra_de_degradado_6-10);}.cls-14{fill:url(#Nueva_muestra_de_degradado_6-11);}.cls-15{fill:url(#Nueva_muestra_de_degradado_6-12);}.cls-16{fill:url(#Nueva_muestra_de_degradado_6-13);}.cls-17{fill:url(#Nueva_muestra_de_degradado_6-14);}.cls-18{fill:url(#Nueva_muestra_de_degradado_6-15);}.cls-19{fill:url(#Nueva_muestra_de_degradado_6-16);}.cls-20{fill:url(#Nueva_muestra_de_degradado_6-17);}.cls-21{fill:url(#Nueva_muestra_de_degradado_6-18);}.cls-22{fill:url(#Nueva_muestra_de_degradado_6-19);}.cls-23{fill:url(#Nueva_muestra_de_degradado_6-20);}.cls-24{fill:url(#Nueva_muestra_de_degradado_6-21);}.cls-25{fill:url(#Nueva_muestra_de_degradado_6-22);}.cls-26{fill:url(#Nueva_muestra_de_degradado_6-23);}.cls-27{fill:url(#Nueva_muestra_de_degradado_6-24);}.cls-28{fill:url(#Nueva_muestra_de_degradado_6-25);}.cls-29{fill:url(#Nueva_muestra_de_degradado_6-26);}.cls-30{fill:url(#Nueva_muestra_de_degradado_6-27);}.cls-31{fill:url(#Nueva_muestra_de_degradado_6-28);}.cls-32{fill:url(#Nueva_muestra_de_degradado_6-29);}.cls-33{fill:url(#Nueva_muestra_de_degradado_6-30);}.cls-34{fill:url(#Nueva_muestra_de_degradado_6-31);}.cls-35{fill:url(#Nueva_muestra_de_degradado_6-32);}.cls-36{fill:url(#Nueva_muestra_de_degradado_6-33);}.cls-37{fill:url(#Nueva_muestra_de_degradado_6-34);}.cls-38{fill:url(#Nueva_muestra_de_degradado_6-35);}.cls-39{fill:url(#Nueva_muestra_de_degradado_6-36);}.cls-40{fill:url(#Nueva_muestra_de_degradado_6-37);}.cls-41{fill:url(#Nueva_muestra_de_degradado_6-38);}.cls-42{fill:url(#Nueva_muestra_de_degradado_6-39);}.cls-43{fill:url(#Nueva_muestra_de_degradado_6-40);}.cls-44{fill:url(#Nueva_muestra_de_degradado_6-41);}.cls-45{fill:url(#Nueva_muestra_de_degradado_6-42);}.cls-46{fill:url(#Nueva_muestra_de_degradado_6-43);}.cls-47{fill:url(#Nueva_muestra_de_degradado_6-44);}.cls-48{fill:url(#Nueva_muestra_de_degradado_6-45);}.cls-49{fill:url(#Nueva_muestra_de_degradado_6-46);}.cls-50{fill:url(#Nueva_muestra_de_degradado_6-47);}.cls-51{fill:url(#Nueva_muestra_de_degradado_6-48);}.cls-52{fill:url(#Nueva_muestra_de_degradado_6-49);}.cls-53{fill:url(#Nueva_muestra_de_degradado_6-50);}</style><linearGradient id="Nueva_muestra_de_degradado_6" x1="88.94" y1="53.15" x2="93.55" y2="53.15" gradientUnits="userSpaceOnUse"><stop offset="0" stop-color="#fff9c9"/><stop offset="0.28" stop-color="#fffad3"/><stop offset="0.77" stop-color="#fffdef"/><stop offset="1" stop-color="#fff"/></linearGradient><linearGradient id="Nueva_muestra_de_degradado_6-2" x1="88.94" y1="34.11" x2="93.55" y2="34.11" xlink:href="#Nueva_muestra_de_degradado_6"/><linearGradient id="Nueva_muestra_de_degradado_6-3" x1="88.94" y1="78.41" x2="93.55" y2="78.41" xlink:href="#Nueva_muestra_de_degradado_6"/><linearGradient id="Nueva_muestra_de_degradado_6-4" x1="106.08" y1="66.66" x2="111.09" y2="66.66" xlink:href="#Nueva_muestra_de_degradado_6"/><linearGradient id="Nueva_muestra_de_degradado_6-5" x1="109.08" y1="46.55" x2="114.77" y2="46.55" xlink:href="#Nueva_muestra_de_degradado_6"/><linearGradient id="Nueva_muestra_de_degradado_6-6" x1="126.32" y1="71.16" x2="132.3" y2="71.16" xlink:href="#Nueva_muestra_de_degradado_6"/><linearGradient id="Nueva_muestra_de_degradado_6-7" x1="128.93" y1="47.89" x2="136" y2="47.89" xlink:href="#Nueva_muestra_de_degradado_6"/><linearGradient id="Nueva_muestra_de_degradado_6-8" x1="110.21" y1="26.49" x2="118.28" y2="26.49" xlink:href="#Nueva_muestra_de_degradado_6"/><linearGradient id="Nueva_muestra_de_degradado_6-9" x1="140.96" y1="38.03" x2="149.02" y2="38.03" xlink:href="#Nueva_muestra_de_degradado_6"/><linearGradient id="Nueva_muestra_de_degradado_6-10" x1="139.53" y1="21.15" x2="147.89" y2="21.15" xlink:href="#Nueva_muestra_de_degradado_6"/><linearGradient id="Nueva_muestra_de_degradado_6-11" x1="119.52" y1="12.67" x2="127.72" y2="12.67" xlink:href="#Nueva_muestra_de_degradado_6"/><linearGradient id="Nueva_muestra_de_degradado_6-12" x1="102.06" y1="8.11" x2="109.71" y2="8.11" xlink:href="#Nueva_muestra_de_degradado_6"/><linearGradient id="Nueva_muestra_de_degradado_6-13" x1="151.25" y1="60.22" x2="158.69" y2="60.22" xlink:href="#Nueva_muestra_de_degradado_6"/><linearGradient id="Nueva_muestra_de_degradado_6-14" x1="71.4" y1="66.66" x2="76.42" y2="66.66" xlink:href="#Nueva_muestra_de_degradado_6"/><linearGradient id="Nueva_muestra_de_degradado_6-15" x1="67.72" y1="46.55" x2="73.42" y2="46.55" xlink:href="#Nueva_muestra_de_degradado_6"/><linearGradient id="Nueva_muestra_de_degradado_6-16" x1="50.2" y1="71.16" x2="56.17" y2="71.16" xlink:href="#Nueva_muestra_de_degradado_6"/><linearGradient id="Nueva_muestra_de_degradado_6-17" x1="46.5" y1="47.89" x2="53.56" y2="47.89" xlink:href="#Nueva_muestra_de_degradado_6"/><linearGradient id="Nueva_muestra_de_degradado_6-18" x1="64.21" y1="26.49" x2="72.28" y2="26.49" xlink:href="#Nueva_muestra_de_degradado_6"/><linearGradient id="Nueva_muestra_de_degradado_6-19" x1="33.47" y1="38.03" x2="41.54" y2="38.03" xlink:href="#Nueva_muestra_de_degradado_6"/><linearGradient id="Nueva_muestra_de_degradado_6-20" x1="34.6" y1="21.15" x2="42.97" y2="21.15" xlink:href="#Nueva_muestra_de_degradado_6"/><linearGradient id="Nueva_muestra_de_degradado_6-21" x1="54.77" y1="12.67" x2="62.98" y2="12.67" xlink:href="#Nueva_muestra_de_degradado_6"/><linearGradient id="Nueva_muestra_de_degradado_6-22" x1="72.79" y1="8.11" x2="80.43" y2="8.11" xlink:href="#Nueva_muestra_de_degradado_6"/><linearGradient id="Nueva_muestra_de_degradado_6-23" x1="23.81" y1="60.22" x2="31.25" y2="60.22" xlink:href="#Nueva_muestra_de_degradado_6"/><linearGradient id="Nueva_muestra_de_degradado_6-24" x1="12.44" y1="38.09" x2="19.89" y2="38.09" xlink:href="#Nueva_muestra_de_degradado_6"/><linearGradient id="Nueva_muestra_de_degradado_6-25" x1="162.61" y1="38.09" x2="170.06" y2="38.09" xlink:href="#Nueva_muestra_de_degradado_6"/><linearGradient id="Nueva_muestra_de_degradado_6-26" x1="88.99" y1="52.04" x2="93.51" y2="52.04" xlink:href="#Nueva_muestra_de_degradado_6"/><linearGradient id="Nueva_muestra_de_degradado_6-27" x1="88.99" y1="33" x2="93.51" y2="33" xlink:href="#Nueva_muestra_de_degradado_6"/><linearGradient id="Nueva_muestra_de_degradado_6-28" x1="88.99" y1="77.3" x2="93.51" y2="77.3" xlink:href="#Nueva_muestra_de_degradado_6"/><linearGradient id="Nueva_muestra_de_degradado_6-29" x1="105.77" y1="65.55" x2="110.68" y2="65.55" xlink:href="#Nueva_muestra_de_degradado_6"/><linearGradient id="Nueva_muestra_de_degradado_6-30" x1="108.7" y1="45.44" x2="114.28" y2="45.44" xlink:href="#Nueva_muestra_de_degradado_6"/><linearGradient id="Nueva_muestra_de_degradado_6-31" x1="125.58" y1="70.05" x2="131.43" y2="70.05" xlink:href="#Nueva_muestra_de_degradado_6"/><linearGradient id="Nueva_muestra_de_degradado_6-32" x1="128.14" y1="46.77" x2="135.05" y2="46.77" xlink:href="#Nueva_muestra_de_degradado_6"/><linearGradient id="Nueva_muestra_de_degradado_6-33" x1="109.81" y1="25.38" x2="117.71" y2="25.38" xlink:href="#Nueva_muestra_de_degradado_6"/><linearGradient id="Nueva_muestra_de_degradado_6-34" x1="139.91" y1="36.92" x2="147.8" y2="36.92" xlink:href="#Nueva_muestra_de_degradado_6"/><linearGradient id="Nueva_muestra_de_degradado_6-35" x1="138.51" y1="20.04" x2="146.69" y2="20.04" xlink:href="#Nueva_muestra_de_degradado_6"/><linearGradient id="Nueva_muestra_de_degradado_6-36" x1="118.92" y1="11.56" x2="126.95" y2="11.56" xlink:href="#Nueva_muestra_de_degradado_6"/><linearGradient id="Nueva_muestra_de_degradado_6-37" x1="101.84" y1="7" x2="109.32" y2="7" xlink:href="#Nueva_muestra_de_degradado_6"/><linearGradient id="Nueva_muestra_de_degradado_6-38" x1="149.98" y1="59.11" x2="157.26" y2="59.11" xlink:href="#Nueva_muestra_de_degradado_6"/><linearGradient id="Nueva_muestra_de_degradado_6-39" x1="71.82" y1="65.55" x2="76.73" y2="65.55" xlink:href="#Nueva_muestra_de_degradado_6"/><linearGradient id="Nueva_muestra_de_degradado_6-40" x1="68.22" y1="45.44" x2="73.79" y2="45.44" xlink:href="#Nueva_muestra_de_degradado_6"/><linearGradient id="Nueva_muestra_de_degradado_6-41" x1="51.06" y1="70.05" x2="56.92" y2="70.05" xlink:href="#Nueva_muestra_de_degradado_6"/><linearGradient id="Nueva_muestra_de_degradado_6-42" x1="47.44" y1="46.77" x2="54.36" y2="46.77" xlink:href="#Nueva_muestra_de_degradado_6"/><linearGradient id="Nueva_muestra_de_degradado_6-43" x1="64.79" y1="25.38" x2="72.68" y2="25.38" xlink:href="#Nueva_muestra_de_degradado_6"/><linearGradient id="Nueva_muestra_de_degradado_6-44" x1="34.69" y1="36.92" x2="42.59" y2="36.92" xlink:href="#Nueva_muestra_de_degradado_6"/><linearGradient id="Nueva_muestra_de_degradado_6-45" x1="35.8" y1="20.04" x2="43.99" y2="20.04" xlink:href="#Nueva_muestra_de_degradado_6"/><linearGradient id="Nueva_muestra_de_degradado_6-46" x1="55.54" y1="11.56" x2="63.58" y2="11.56" xlink:href="#Nueva_muestra_de_degradado_6"/><linearGradient id="Nueva_muestra_de_degradado_6-47" x1="73.18" y1="7" x2="80.66" y2="7" xlink:href="#Nueva_muestra_de_degradado_6"/><linearGradient id="Nueva_muestra_de_degradado_6-48" x1="25.23" y1="59.11" x2="32.52" y2="59.11" xlink:href="#Nueva_muestra_de_degradado_6"/><linearGradient id="Nueva_muestra_de_degradado_6-49" x1="14.1" y1="36.98" x2="21.39" y2="36.98" xlink:href="#Nueva_muestra_de_degradado_6"/><linearGradient id="Nueva_muestra_de_degradado_6-50" x1="161.1" y1="36.98" x2="168.39" y2="36.98" xlink:href="#Nueva_muestra_de_degradado_6"/></defs><g class="cls-1"><g id="Camada_2" data-name="Camada 2"><g id="Camada_3" data-name="Camada 3"><path class="cls-2" d="M91.25,2C49.05,2,2,24.11,2,65.4c0,21.25,40,38.48,89.25,38.48S180.5,86.65,180.5,65.4C180.5,24.11,133.44,2,91.25,2Z"/><g class="cls-3"><path class="cls-4" d="M91.25,49.05c-2.93,4-3.22,8.19,0,8.19S94.18,53,91.25,49.05Z"/><path class="cls-5" d="M91.25,30C88.32,34,88,38.2,91.25,38.2S94.18,34,91.25,30Z"/><path class="cls-6" d="M91.25,74.31c-2.93,4-3.22,8.19,0,8.19S94.18,78.26,91.25,74.31Z"/><path class="cls-7" d="M106.54,62.76c-1.24,4.73.1,8.77,3.09,7.61S110.75,65.36,106.54,62.76Z"/><path class="cls-8" d="M109.1,42.91c-.24,4.87,1.9,8.57,4.59,6.84S113.76,44.63,109.1,42.91Z"/><path class="cls-9" d="M126.32,67.62c.06,4.88,2.42,8.45,5,6.57S131.08,69.07,126.32,67.62Z"/><path class="cls-10" d="M128.93,44.85c1.27,4.72,4.45,7.62,6.49,5.18S133.91,45.13,128.93,44.85Z"/><path class="cls-11" d="M110.21,24.69c2.85,4,6.85,5.67,7.91,2.69S115,23.28,110.21,24.69Z"/><path class="cls-12" d="M141,36.23c2.84,4,6.84,5.66,7.9,2.69S145.73,34.81,141,36.23Z"/><path class="cls-13" d="M139.53,21.4c4.16,2.69,8.5,2.78,8.36-.36S143.43,18.36,139.53,21.4Z"/><path class="cls-14" d="M119.52,14c4.62,1.82,8.9,1.05,8.11-2S122.71,10.28,119.52,14Z"/><path class="cls-15" d="M102.06,10.66c5,.56,8.87-1.28,7.29-4S104.13,6.22,102.06,10.66Z"/><path class="cls-16" d="M151.25,57.45c1.77,4.57,5.24,7.12,7,4.48S156.22,57.21,151.25,57.45Z"/><path class="cls-17" d="M76,62.76c1.23,4.73-.11,8.77-3.1,7.61S71.74,65.36,76,62.76Z"/><path class="cls-18" d="M73.4,42.91c.23,4.87-1.91,8.57-4.6,6.84S68.73,44.63,73.4,42.91Z"/><path class="cls-19" d="M56.17,67.62c-.05,4.88-2.41,8.45-5,6.57S51.41,69.07,56.17,67.62Z"/><path class="cls-20" d="M53.56,44.85c-1.27,4.72-4.45,7.62-6.48,5.18S48.58,45.13,53.56,44.85Z"/><path class="cls-21" d="M72.28,24.69c-2.84,4-6.84,5.67-7.9,2.69S67.51,23.28,72.28,24.69Z"/><path class="cls-22" d="M41.54,36.23c-2.85,4-6.85,5.66-7.9,2.69S36.77,34.81,41.54,36.23Z"/><path class="cls-23" d="M43,21.4c-4.16,2.69-8.5,2.78-8.36-.36S39.07,18.36,43,21.4Z"/><path class="cls-24" d="M63,14c-4.63,1.82-8.9,1.05-8.11-2S59.78,10.28,63,14Z"/><path class="cls-25" d="M80.43,10.66c-5,.56-8.87-1.28-7.28-4S78.36,6.22,80.43,10.66Z"/><path class="cls-26" d="M31.25,57.45c-1.77,4.57-5.24,7.12-7,4.48S26.27,57.21,31.25,57.45Z"/><path class="cls-27" d="M19.89,35.34c-1.79,4.55-5.26,7.1-7,4.46S14.91,35.08,19.89,35.34Z"/><path class="cls-28" d="M162.61,35.34c1.78,4.55,5.26,7.1,7,4.46S167.59,35.08,162.61,35.34Z"/></g><path class="cls-29" d="M91.25,47.94c-2.87,4-3.15,8.19,0,8.19S94.12,51.89,91.25,47.94Z"/><path class="cls-30" d="M91.25,28.9c-2.87,4-3.15,8.19,0,8.19S94.12,32.85,91.25,28.9Z"/><path class="cls-31" d="M91.25,73.2c-2.87,4-3.15,8.19,0,8.19S94.12,77.15,91.25,73.2Z"/><path class="cls-32" d="M106.21,61.65c-1.2,4.73.11,8.77,3,7.61S110.34,64.25,106.21,61.65Z"/><path class="cls-33" d="M108.72,41.8c-.23,4.87,1.87,8.57,4.5,6.84S113.29,43.52,108.72,41.8Z"/><path class="cls-34" d="M125.58,66.51c.06,4.88,2.37,8.45,4.89,6.57S130.24,68,125.58,66.51Z"/><path class="cls-35" d="M128.14,43.74c1.24,4.72,4.35,7.62,6.34,5.18S133,44,128.14,43.74Z"/><path class="cls-36" d="M109.81,23.58c2.79,4,6.7,5.67,7.74,2.69S114.49,22.17,109.81,23.58Z"/><path class="cls-37" d="M139.91,35.12c2.78,4,6.7,5.66,7.73,2.69S144.58,33.7,139.91,35.12Z"/><path class="cls-38" d="M138.51,20.29c4.07,2.69,8.32,2.78,8.18-.36S142.33,17.25,138.51,20.29Z"/><path class="cls-39" d="M118.92,12.92c4.53,1.82,8.71,1.05,7.94-2S122.05,9.17,118.92,12.92Z"/><path class="cls-40" d="M101.84,9.55c4.84.56,8.68-1.28,7.13-4S103.86,5.11,101.84,9.55Z"/><path class="cls-41" d="M150,56.34c1.73,4.57,5.13,7.12,6.85,4.48S154.85,56.1,150,56.34Z"/><path class="cls-42" d="M76.28,61.65c1.21,4.73-.1,8.77-3,7.61S72.16,64.25,76.28,61.65Z"/><path class="cls-43" d="M73.77,41.8c.23,4.87-1.86,8.57-4.49,6.84S69.21,43.52,73.77,41.8Z"/><path class="cls-44" d="M56.92,66.51c-.06,4.88-2.37,8.45-4.9,6.57S52.26,68,56.92,66.51Z"/><path class="cls-45" d="M54.36,43.74C53.11,48.46,50,51.36,48,48.92S49.49,44,54.36,43.74Z"/><path class="cls-46" d="M72.68,23.58c-2.78,4-6.7,5.67-7.73,2.69S68,22.17,72.68,23.58Z"/><path class="cls-47" d="M42.59,35.12c-2.79,4-6.7,5.66-7.74,2.69S37.92,33.7,42.59,35.12Z"/><path class="cls-48" d="M44,20.29c-4.07,2.69-8.32,2.78-8.18-.36S40.17,17.25,44,20.29Z"/><path class="cls-49" d="M63.58,12.92c-4.53,1.82-8.71,1.05-7.95-2S60.45,9.17,63.58,12.92Z"/><path class="cls-50" d="M80.66,9.55c-4.85.56-8.68-1.28-7.13-4S78.63,5.11,80.66,9.55Z"/><path class="cls-51" d="M32.52,56.34c-1.74,4.57-5.13,7.12-6.86,4.48S27.64,56.1,32.52,56.34Z"/><path class="cls-52" d="M21.39,34.23c-1.74,4.55-5.14,7.1-6.86,4.46S16.52,34,21.39,34.23Z"/><path class="cls-53" d="M161.1,34.23c1.75,4.55,5.15,7.1,6.87,4.46S166,34,161.1,34.23Z"/></g></g></g></svg>