<svg xmlns="http://www.w3.org/2000/svg" viewBox="0 0 186.58 109.51"><defs><style>.cls-1{isolation:isolate;}.cls-2,.cls-3,.cls-4{fill:#705342;stroke:#fff;stroke-miterlimit:10;stroke-width:3px;}.cls-3{opacity:0.3;mix-blend-mode:multiply;}.cls-4{opacity:0.8;mix-blend-mode:screen;}</style></defs><g class="cls-1"><g id="Camada_2" data-name="Camada 2"><g id="Camada_3" data-name="Camada 3"><path class="cls-2" d="M185.08,55.32c0-9-1.45-16.09-6.1-23.27h0C168.44,14.42,134.07,1.5,93.29,1.5S18.15,14.42,7.6,32.05h0C3,39.23,1.5,46.3,1.5,55.32S3,70.28,7.6,77.46h0C18.15,95.08,52.52,108,93.29,108S168.44,95.08,179,77.45h0C183.63,70.28,185.08,64.35,185.08,55.32Z"/><path class="cls-3" d="M179,68h0C168.44,85.6,134.07,98.52,93.29,98.52S18.15,85.6,7.6,68h0A34.34,34.34,0,0,1,1.66,50.53c-.11,1.54-.16,3.13-.16,4.79,0,9,1.46,15,6.1,22.14h0C18.15,95.08,52.52,108,93.29,108S168.44,95.08,179,77.45h0c4.65-7.18,6.1-13.11,6.1-22.14,0-1.66-.05-3.25-.16-4.79A34.34,34.34,0,0,1,179,68Z"/><ellipse class="cls-4" cx="93.29" cy="43.47" rx="83.13" ry="38.11"/></g></g></g></svg>