<svg xmlns="http://www.w3.org/2000/svg" xmlns:xlink="http://www.w3.org/1999/xlink" viewBox="0 0 182.5 105.88"><defs><style>.cls-1{fill:#e8ad60;stroke:#fff;stroke-miterlimit:10;stroke-width:4px;}.cls-2{fill:url(#Nueva_muestra_de_degradado_6);}.cls-3{fill:url(#Nueva_muestra_de_degradado_6-2);}.cls-4{fill:url(#Nueva_muestra_de_degradado_6-3);}.cls-5{fill:url(#Nueva_muestra_de_degradado_6-4);}.cls-6{fill:url(#Nueva_muestra_de_degradado_6-5);}.cls-7{fill:url(#Nueva_muestra_de_degradado_6-6);}.cls-8{fill:url(#Nueva_muestra_de_degradado_6-7);}.cls-9{fill:url(#Nueva_muestra_de_degradado_6-8);}.cls-10{fill:url(#Nueva_muestra_de_degradado_6-9);}.cls-11{fill:url(#Nueva_muestra_de_degradado_6-10);}.cls-12{fill:url(#Nueva_muestra_de_degradado_6-11);}.cls-13{fill:url(#Nueva_muestra_de_degradado_6-12);}.cls-14{fill:url(#Nueva_muestra_de_degradado_6-13);}.cls-15{fill:url(#Nueva_muestra_de_degradado_6-14);}.cls-16{fill:url(#Nueva_muestra_de_degradado_6-15);}.cls-17{fill:url(#Nueva_muestra_de_degradado_6-16);}.cls-18{fill:url(#Nueva_muestra_de_degradado_6-17);}.cls-19{fill:url(#Nueva_muestra_de_degradado_6-18);}.cls-20{fill:url(#Nueva_muestra_de_degradado_6-19);}.cls-21{fill:url(#Nueva_muestra_de_degradado_6-20);}.cls-22{fill:url(#Nueva_muestra_de_degradado_6-21);}.cls-23{fill:url(#Nueva_muestra_de_degradado_6-22);}.cls-24{fill:url(#Nueva_muestra_de_degradado_6-23);}.cls-25{fill:url(#Nueva_muestra_de_degradado_6-24);}.cls-26{fill:url(#Nueva_muestra_de_degradado_6-25);}</style><linearGradient id="Nueva_muestra_de_degradado_6" x1="88.99" y1="52.04" x2="93.51" y2="52.04" gradientUnits="userSpaceOnUse"><stop offset="0" stop-color="#fff9c9"/><stop offset="0.28" stop-color="#fffad3"/><stop offset="0.77" stop-color="#fffdef"/><stop offset="1" stop-color="#fff"/></linearGradient><linearGradient id="Nueva_muestra_de_degradado_6-2" x1="88.99" y1="33" x2="93.51" y2="33" xlink:href="#Nueva_muestra_de_degradado_6"/><linearGradient id="Nueva_muestra_de_degradado_6-3" x1="88.99" y1="77.3" x2="93.51" y2="77.3" xlink:href="#Nueva_muestra_de_degradado_6"/><linearGradient id="Nueva_muestra_de_degradado_6-4" x1="105.77" y1="65.55" x2="110.68" y2="65.55" xlink:href="#Nueva_muestra_de_degradado_6"/><linearGradient id="Nueva_muestra_de_degradado_6-5" x1="108.7" y1="45.44" x2="114.28" y2="45.44" xlink:href="#Nueva_muestra_de_degradado_6"/><linearGradient id="Nueva_muestra_de_degradado_6-6" x1="125.58" y1="70.05" x2="131.43" y2="70.05" xlink:href="#Nueva_muestra_de_degradado_6"/><linearGradient id="Nueva_muestra_de_degradado_6-7" x1="128.14" y1="46.77" x2="135.05" y2="46.77" xlink:href="#Nueva_muestra_de_degradado_6"/><linearGradient id="Nueva_muestra_de_degradado_6-8" x1="109.81" y1="25.38" x2="117.71" y2="25.38" xlink:href="#Nueva_muestra_de_degradado_6"/><linearGradient id="Nueva_muestra_de_degradado_6-9" x1="139.91" y1="36.92" x2="147.8" y2="36.92" xlink:href="#Nueva_muestra_de_degradado_6"/><linearGradient id="Nueva_muestra_de_degradado_6-10" x1="138.51" y1="20.04" x2="146.69" y2="20.04" xlink:href="#Nueva_muestra_de_degradado_6"/><linearGradient id="Nueva_muestra_de_degradado_6-11" x1="118.92" y1="11.56" x2="126.95" y2="11.56" xlink:href="#Nueva_muestra_de_degradado_6"/><linearGradient id="Nueva_muestra_de_degradado_6-12" x1="101.84" y1="7" x2="109.32" y2="7" xlink:href="#Nueva_muestra_de_degradado_6"/><linearGradient id="Nueva_muestra_de_degradado_6-13" x1="149.98" y1="59.11" x2="157.26" y2="59.11" xlink:href="#Nueva_muestra_de_degradado_6"/><linearGradient id="Nueva_muestra_de_degradado_6-14" x1="71.82" y1="65.55" x2="76.73" y2="65.55" xlink:href="#Nueva_muestra_de_degradado_6"/><linearGradient id="Nueva_muestra_de_degradado_6-15" x1="68.22" y1="45.44" x2="73.79" y2="45.44" xlink:href="#Nueva_muestra_de_degradado_6"/><linearGradient id="Nueva_muestra_de_degradado_6-16" x1="51.06" y1="70.05" x2="56.92" y2="70.05" xlink:href="#Nueva_muestra_de_degradado_6"/><linearGradient id="Nueva_muestra_de_degradado_6-17" x1="47.44" y1="46.77" x2="54.36" y2="46.77" xlink:href="#Nueva_muestra_de_degradado_6"/><linearGradient id="Nueva_muestra_de_degradado_6-18" x1="64.79" y1="25.38" x2="72.68" y2="25.38" xlink:href="#Nueva_muestra_de_degradado_6"/><linearGradient id="Nueva_muestra_de_degradado_6-19" x1="34.69" y1="36.92" x2="42.59" y2="36.92" xlink:href="#Nueva_muestra_de_degradado_6"/><linearGradient id="Nueva_muestra_de_degradado_6-20" x1="35.8" y1="20.04" x2="43.99" y2="20.04" xlink:href="#Nueva_muestra_de_degradado_6"/><linearGradient id="Nueva_muestra_de_degradado_6-21" x1="55.54" y1="11.56" x2="63.58" y2="11.56" xlink:href="#Nueva_muestra_de_degradado_6"/><linearGradient id="Nueva_muestra_de_degradado_6-22" x1="73.18" y1="7" x2="80.66" y2="7" xlink:href="#Nueva_muestra_de_degradado_6"/><linearGradient id="Nueva_muestra_de_degradado_6-23" x1="25.23" y1="59.11" x2="32.52" y2="59.11" xlink:href="#Nueva_muestra_de_degradado_6"/><linearGradient id="Nueva_muestra_de_degradado_6-24" x1="14.1" y1="36.98" x2="21.39" y2="36.98" xlink:href="#Nueva_muestra_de_degradado_6"/><linearGradient id="Nueva_muestra_de_degradado_6-25" x1="161.1" y1="36.98" x2="168.39" y2="36.98" xlink:href="#Nueva_muestra_de_degradado_6"/></defs><g id="Camada_2" data-name="Camada 2"><g id="Camada_2-2" data-name="Camada 2"><path class="cls-1" d="M91.25,2C49.05,2,2,24.11,2,65.4c0,21.25,40,38.48,89.25,38.48S180.5,86.65,180.5,65.4C180.5,24.11,133.44,2,91.25,2Z"/><path class="cls-2" d="M91.25,47.94c-2.87,4-3.15,8.19,0,8.19S94.12,51.89,91.25,47.94Z"/><path class="cls-3" d="M91.25,28.9c-2.87,4-3.15,8.19,0,8.19S94.12,32.85,91.25,28.9Z"/><path class="cls-4" d="M91.25,73.2c-2.87,4-3.15,8.19,0,8.19S94.12,77.15,91.25,73.2Z"/><path class="cls-5" d="M106.21,61.65c-1.2,4.73.11,8.77,3,7.61S110.34,64.25,106.21,61.65Z"/><path class="cls-6" d="M108.72,41.8c-.23,4.87,1.87,8.57,4.5,6.84S113.29,43.52,108.72,41.8Z"/><path class="cls-7" d="M125.58,66.51c.06,4.88,2.37,8.45,4.89,6.57S130.24,68,125.58,66.51Z"/><path class="cls-8" d="M128.14,43.74c1.24,4.72,4.35,7.62,6.34,5.18S133,44,128.14,43.74Z"/><path class="cls-9" d="M109.81,23.58c2.79,4,6.7,5.67,7.74,2.69S114.49,22.17,109.81,23.58Z"/><path class="cls-10" d="M139.91,35.12c2.78,4,6.7,5.66,7.73,2.69S144.58,33.7,139.91,35.12Z"/><path class="cls-11" d="M138.51,20.29c4.07,2.69,8.32,2.78,8.18-.36S142.33,17.25,138.51,20.29Z"/><path class="cls-12" d="M118.92,12.92c4.53,1.82,8.71,1.05,7.94-2S122.05,9.17,118.92,12.92Z"/><path class="cls-13" d="M101.84,9.55c4.84.56,8.68-1.28,7.13-4S103.86,5.11,101.84,9.55Z"/><path class="cls-14" d="M150,56.34c1.73,4.57,5.13,7.12,6.85,4.48S154.85,56.1,150,56.34Z"/><path class="cls-15" d="M76.28,61.65c1.21,4.73-.1,8.77-3,7.61S72.16,64.25,76.28,61.65Z"/><path class="cls-16" d="M73.77,41.8c.23,4.87-1.86,8.57-4.49,6.84S69.21,43.52,73.77,41.8Z"/><path class="cls-17" d="M56.92,66.51c-.06,4.88-2.37,8.45-4.9,6.57S52.26,68,56.92,66.51Z"/><path class="cls-18" d="M54.36,43.74C53.11,48.46,50,51.36,48,48.92S49.49,44,54.36,43.74Z"/><path class="cls-19" d="M72.68,23.58c-2.78,4-6.7,5.67-7.73,2.69S68,22.17,72.68,23.58Z"/><path class="cls-20" d="M42.59,35.12c-2.79,4-6.7,5.66-7.74,2.69S37.92,33.7,42.59,35.12Z"/><path class="cls-21" d="M44,20.29c-4.07,2.69-8.32,2.78-8.18-.36S40.17,17.25,44,20.29Z"/><path class="cls-22" d="M63.58,12.92c-4.53,1.82-8.71,1.05-7.95-2S60.45,9.17,63.58,12.92Z"/><path class="cls-23" d="M80.66,9.55c-4.85.56-8.68-1.28-7.13-4S78.63,5.11,80.66,9.55Z"/><path class="cls-24" d="M32.52,56.34c-1.74,4.57-5.13,7.12-6.86,4.48S27.64,56.1,32.52,56.34Z"/><path class="cls-25" d="M21.39,34.23c-1.74,4.55-5.14,7.1-6.86,4.46S16.52,34,21.39,34.23Z"/><path class="cls-26" d="M161.1,34.23c1.75,4.55,5.15,7.1,6.87,4.46S166,34,161.1,34.23Z"/></g></g></svg>