<svg xmlns="http://www.w3.org/2000/svg" viewBox="0 0 200.25 94.68"><defs><style>.cls-1{isolation:isolate;}.cls-2,.cls-3{fill:#ffda31;stroke:#fff;stroke-miterlimit:10;stroke-width:2px;}.cls-2,.cls-4{mix-blend-mode:multiply;}.cls-4{opacity:0.3;}</style></defs><g class="cls-1"><g id="Camada_2" data-name="Camada 2"><g id="Camada_2-2" data-name="Camada 2"><path class="cls-2" d="M2.39,46.28v2l16.12,6.1L21,55.56c10.58-3.94,26.1-3.63,35.93.91,8.68,4,10.19,10.09,4.55,14.83l-2.59-.25v2L84,84.72l16.12,8.82,16.13-8.82,65.49-30.3,16.12-6.1v-2l-3,.39L181.74,39.5,116.25,9.21l-16.13-6.1L84,9.21l-1,.47-6.14.8v2c6.29-.26,12.77.72,17.58,3,8.62,4,8.62,10.44,0,14.43s-22.57,4-31.19,0c-4.81-2.23-6.93-5.23-6.37-8.14L18.51,39.5,5,46.91Zm123.4-6c7.37-3.41,19.32-3.41,26.69,0s7.37,8.93,0,12.34-19.32,3.41-26.69,0S118.42,43.65,125.79,40.24Z"/><path class="cls-3" d="M2.39,46.28l16.12,6.1L21,53.52c10.58-3.94,26.1-3.63,35.93.91s10.47,11.72,2,16.62L84,82.68l16.12,8.81,16.13-8.81,65.49-30.3,16.12-6.1-16.12-8.82L116.25,7.17l-16.13-6.1L84,7.17l-7.16,3.31c6.29-.26,12.77.72,17.58,2.95,8.62,4,8.62,10.44,0,14.43s-22.57,4-31.19,0c-4.81-2.23-6.93-5.23-6.37-8.14L18.51,37.46Zm123.4-8.08c7.37-3.41,19.32-3.41,26.69,0s7.37,8.93,0,12.34-19.32,3.41-26.69,0S118.42,41.61,125.79,38.2Z"/><g class="cls-4"><path class="cls-3" d="M115.84,44.37c0,2.41,1,6.93,8.09,10.18a40.38,40.38,0,0,0,30.4,0c7-3.25,8.09-7.77,8.09-10.18s-1-6.93-8.09-10.19a40.51,40.51,0,0,0-30.4,0C116.89,37.44,115.84,42,115.84,44.37Zm10-6.17c7.37-3.41,19.32-3.41,26.69,0s7.37,8.93,0,12.34-19.32,3.41-26.69,0S118.42,41.61,125.79,38.2Z"/><path class="cls-3" d="M56.91,54.43c9.82,4.55,10.47,11.72,2,16.62L84,82.68l16.12,8.81,16.13-8.81,65.49-30.3,16.12-6.1-16.12-8.82L116.25,7.17l-16.13-6.1L84,7.17l-7.16,3.31c6.29-.26,12.77.72,17.58,2.95,8.62,4,8.62,10.44,0,14.43s-22.57,4-31.19,0c-4.81-2.23-6.93-5.23-6.37-8.14L18.51,37.46,2.39,46.28l16.12,6.1L21,53.52C31.56,49.58,47.08,49.89,56.91,54.43ZM37.85,46.36a55.38,55.38,0,0,0-16.63,2.4l-1.15-.51-7.13-2.7,7.56-4.14L54,25.93a17.27,17.27,0,0,0,7.4,5.94,42.62,42.62,0,0,0,17.45,3.39,42.62,42.62,0,0,0,17.45-3.39c7.85-3.63,9-8.6,9-11.23s-1.18-7.59-9-11.23C95.4,9,94.47,8.64,93.5,8.3l6.62-2.5,14.41,5.45,65.22,30.16,7.55,4.14-7.42,2.82L114.26,78.73l-14.14,7.73-14.26-7.8L66.92,69.9a11.06,11.06,0,0,0,2.29-7.11c-.13-2.87-1.65-8.3-10.45-12.37C53.1,47.8,45.68,46.36,37.85,46.36Z"/></g></g></g></g></svg>