<svg xmlns="http://www.w3.org/2000/svg" viewBox="0 0 188.96 76.51"><defs><style>.cls-1{fill:#ca2200;}.cls-1,.cls-2{stroke:#fff;stroke-miterlimit:10;}.cls-2{fill:#ff8376;}</style></defs><g id="Camada_2" data-name="Camada 2"><g id="Camada_2-2" data-name="Camada 2"><path class="cls-1" d="M.5,47.93C.5,63.44,25.64,76,56.64,76s56.15-12.57,56.15-28.08v-9H.5Z"/><ellipse class="cls-1" cx="56.64" cy="38.94" rx="56.14" ry="28.09"/><ellipse class="cls-2" cx="56.64" cy="38.94" rx="54.95" ry="27.21"/><path class="cls-1" d="M56.64,13.49c-21,0-31.93,5.67-26.76,13.63,1.47,2.26,6.55,6.06,14.72,6.05,4.76,0,7-2.05,7.3-3.46.42-2.2-1-4.84-4-6.07-3.54-1.43-3.07-4,8.78-4s12.32,2.6,8.78,4c-3,1.23-4.46,3.87-4,6.07.27,1.41,2.54,3.46,7.3,3.46,8.17,0,13.25-3.79,14.72-6.05C88.58,19.16,77.6,13.49,56.64,13.49Z"/><path class="cls-1" d="M12.59,51.67c10.47,9.08,25.78,11,37,4.78,3.17-1.77,7.21-5.87,3.12-9.41C50.29,45,45.6,45,43,45.61c-4,.92-7.87,2.87-8.48,4.79-.72,2.25-5.44,3.35-11.37-1.79S21.51,42,25.77,42.79a27.26,27.26,0,0,0,12.52-1.28c2.3-.82,4.72-2.83,2.35-4.9-4.08-3.54-13.2-3.84-17.84-3.35C6.43,35,2.11,42.59,12.59,51.67Z"/><path class="cls-1" d="M100.7,51.67c10.48-9.08,6.15-16.67-10.21-18.41-4.65-.49-13.76-.19-17.84,3.35-2.38,2.07,0,4.08,2.35,4.9a27.26,27.26,0,0,0,12.52,1.28c4.26-.81,8.52.68,2.59,5.82s-10.65,4-11.37,1.79c-.62-1.92-4.47-3.87-8.48-4.79C67.69,45,63,45,60.61,47c-4.09,3.54-.06,7.64,3.12,9.41C74.92,62.67,90.22,60.75,100.7,51.67Z"/><path class="cls-1" d="M76.17,37.57c0,15.51,25.14,28.08,56.15,28.08s56.14-12.57,56.14-28.08v-9H76.17Z"/><ellipse class="cls-1" cx="132.32" cy="28.59" rx="56.14" ry="28.09"/><ellipse class="cls-2" cx="132.32" cy="28.59" rx="54.95" ry="27.21"/><path class="cls-1" d="M132.32,3.14c-21,0-31.94,5.67-26.76,13.62,1.47,2.26,6.55,6.06,14.72,6.06,4.76,0,7-2.06,7.3-3.47.42-2.2-1-4.84-4-6.06-3.54-1.44-3.08-4,8.78-4s12.32,2.6,8.78,4c-3,1.22-4.46,3.86-4,6.06.27,1.41,2.54,3.46,7.3,3.47,8.17,0,13.25-3.8,14.72-6.06C164.26,8.81,153.27,3.14,132.32,3.14Z"/><path class="cls-1" d="M88.26,41.31c10.48,9.08,25.78,11,37,4.78,3.18-1.77,7.21-5.87,3.12-9.4-2.38-2.07-7.08-2-9.65-1.43-4,.91-7.86,2.86-8.48,4.78-.72,2.25-5.44,3.35-11.37-1.79s-1.67-6.63,2.59-5.82A27.13,27.13,0,0,0,114,31.15c2.3-.82,4.73-2.83,2.35-4.9-4.08-3.54-13.19-3.84-17.84-3.35C82.11,24.64,77.78,32.23,88.26,41.31Z"/><path class="cls-1" d="M176.37,41.31c10.48-9.08,6.16-16.67-10.2-18.41-4.65-.49-13.76-.19-17.85,3.35-2.37,2.07.05,4.08,2.35,4.9a27.13,27.13,0,0,0,12.52,1.28c4.26-.81,8.52.68,2.59,5.82s-10.65,4-11.37,1.79c-.61-1.92-4.46-3.87-8.48-4.78-2.57-.59-7.26-.64-9.64,1.43-4.1,3.53-.06,7.63,3.11,9.4C150.59,52.31,165.9,50.39,176.37,41.31Z"/></g></g></svg>