<svg xmlns="http://www.w3.org/2000/svg" viewBox="0 0 223.79 84.05"><defs><style>.cls-1{fill:#3d3e6d;stroke:#fff;stroke-miterlimit:10;stroke-width:2px;}</style></defs><g id="Camada_2" data-name="Camada 2"><g id="LINHA"><path class="cls-1" d="M214.4,39.94c-5.13-2.22-7.06-7.48-12.85-10.58-5-2.68-14-3.22-19.6-6.1-5.27-2.7-7.39-7.85-13.28-10.36s-14.71-2.06-21.13-4-11-6.42-18.08-7.5c-6.77-1-14.58,1.47-22.07,1.47-7.1,0-14.46-2.59-20.79-1.67-6.72,1-11.11,5.35-17,7.11-6.1,1.8-14.69,1.27-20,3.6C44,14.31,42.42,19.32,37.62,22c-5.12,2.81-13.73,3.43-18.15,6.12-5.13,3.13-6,8.28-10.31,10.65C2.93,42.14,5.42,41.81.29,42h0c5.13.21,2.64-.12,8.87,3.29,4.35,2.37,5.18,7.52,10.31,10.65,4.42,2.69,13,3.31,18.15,6.12,4.8,2.64,6.39,7.65,11.9,10,5.35,2.33,13.94,1.8,20,3.61,5.93,1.75,10.32,6.12,17,7.1,6.33.93,13.69-1.67,20.79-1.67,7.49,0,15.3,2.52,22.07,1.47,7-1.08,11.75-5.59,18.08-7.5s15.38-1.54,21.13-4,8-7.66,13.28-10.36c5.62-2.88,14.58-3.42,19.6-6.1,5.79-3.1,7.72-8.35,12.85-10.58A28.31,28.31,0,0,1,223.71,42,28.33,28.33,0,0,1,214.4,39.94Z"/></g></g></svg>