<svg xmlns="http://www.w3.org/2000/svg" viewBox="0 0 185.58 113.71"><defs><style>.cls-1{isolation:isolate;}.cls-2,.cls-3,.cls-5{fill:#3d3e6d;stroke-miterlimit:10;stroke-width:2px;}.cls-2,.cls-3{stroke:#fff;}.cls-3{mix-blend-mode:screen;}.cls-4{mix-blend-mode:multiply;}.cls-5{stroke:#3d3e6d;}</style></defs><g class="cls-1"><g id="Camada_2" data-name="Camada 2"><g id="LINHA"><path class="cls-2" d="M184.58,56.86c0-8.9-2.05-18.67-6.67-25.75h0C167.44,13.74,133.3,1,92.79,1S18.15,13.74,7.67,31.11h0C3.06,38.19,1,48,1,56.86S3.06,75.52,7.67,82.6h0C18.15,100,52.29,112.71,92.79,112.71S167.44,100,177.91,82.6h0C182.53,75.52,184.58,65.75,184.58,56.86Z"/><ellipse class="cls-3" cx="92.79" cy="42.37" rx="86.81" ry="40.6"/><g class="cls-4"><line class="cls-5" x1="40.11" y1="71.29" x2="145.98" y2="13.63"/><line class="cls-5" x1="123.37" y1="7.46" x2="22.75" y2="62.27"/><line class="cls-5" x1="15.31" y1="29.35" x2="50.81" y2="10.01"/><path class="cls-5" d="M11.81,49.74,94.3,4.81H92.79"/><line class="cls-5" x1="136.5" y1="74.24" x2="169.55" y2="56.24"/><path class="cls-5" d="M173.93,35.37,92.12,79.93h.67"/><line class="cls-5" x1="62.86" y1="77.39" x2="163.2" y2="22.73"/></g></g></g></g></svg>