<svg xmlns="http://www.w3.org/2000/svg" viewBox="0 0 181.5 104.88"><defs><style>.cls-1{fill:#3d3e6d;stroke-width:3px;}.cls-1,.cls-2{stroke:#fff;stroke-miterlimit:10;}.cls-2{fill:#fff;}</style></defs><g id="Camada_2" data-name="Camada 2"><g id="LINHA"><path class="cls-1" d="M90.75,1.5C48.55,1.5,1.5,23.61,1.5,64.9c0,21.25,40,38.48,89.25,38.48S180,86.15,180,64.9C180,23.61,132.94,1.5,90.75,1.5Z"/><path class="cls-2" d="M90.75,47.44c-2.87,4-3.15,8.19,0,8.19S93.62,51.39,90.75,47.44Z"/><path class="cls-2" d="M90.75,28.4c-2.87,4-3.15,8.19,0,8.19S93.62,32.35,90.75,28.4Z"/><path class="cls-2" d="M90.75,72.7c-2.87,4-3.15,8.19,0,8.19S93.62,76.65,90.75,72.7Z"/><path class="cls-2" d="M105.71,61.15c-1.2,4.73.11,8.77,3,7.61S109.84,63.75,105.71,61.15Z"/><path class="cls-2" d="M108.22,41.3c-.23,4.87,1.87,8.57,4.5,6.84S112.79,43,108.22,41.3Z"/><path class="cls-2" d="M125.08,66c.06,4.88,2.37,8.45,4.89,6.57S129.74,67.46,125.08,66Z"/><path class="cls-2" d="M127.64,43.24C128.88,48,132,50.86,134,48.42S132.51,43.52,127.64,43.24Z"/><path class="cls-2" d="M109.31,23.08c2.79,4,6.7,5.67,7.74,2.69S114,21.67,109.31,23.08Z"/><path class="cls-2" d="M139.41,34.62c2.78,4,6.7,5.66,7.73,2.69S144.08,33.2,139.41,34.62Z"/><path class="cls-2" d="M138,19.79c4.07,2.69,8.32,2.78,8.18-.36S141.83,16.75,138,19.79Z"/><path class="cls-2" d="M118.42,12.42c4.53,1.82,8.71,1.05,7.94-2S121.55,8.67,118.42,12.42Z"/><path class="cls-2" d="M101.34,9.05c4.84.56,8.68-1.28,7.13-4S103.36,4.61,101.34,9.05Z"/><path class="cls-2" d="M149.48,55.84c1.73,4.57,5.13,7.12,6.85,4.48S154.35,55.6,149.48,55.84Z"/><path class="cls-2" d="M75.78,61.15c1.21,4.73-.1,8.77-3,7.61S71.66,63.75,75.78,61.15Z"/><path class="cls-2" d="M73.27,41.3c.23,4.87-1.86,8.57-4.49,6.84S68.71,43,73.27,41.3Z"/><path class="cls-2" d="M56.42,66c-.06,4.88-2.37,8.45-4.9,6.57S51.76,67.46,56.42,66Z"/><path class="cls-2" d="M53.86,43.24c-1.25,4.72-4.36,7.62-6.35,5.18S49,43.52,53.86,43.24Z"/><path class="cls-2" d="M72.18,23.08c-2.78,4-6.7,5.67-7.73,2.69S67.51,21.67,72.18,23.08Z"/><path class="cls-2" d="M42.09,34.62c-2.79,4-6.7,5.66-7.74,2.69S37.42,33.2,42.09,34.62Z"/><path class="cls-2" d="M43.49,19.79c-4.07,2.69-8.32,2.78-8.18-.36S39.67,16.75,43.49,19.79Z"/><path class="cls-2" d="M63.08,12.42c-4.53,1.82-8.71,1.05-7.95-2S60,8.67,63.08,12.42Z"/><path class="cls-2" d="M80.16,9.05c-4.85.56-8.68-1.28-7.13-4S78.13,4.61,80.16,9.05Z"/><path class="cls-2" d="M32,55.84c-1.74,4.57-5.13,7.12-6.86,4.48S27.14,55.6,32,55.84Z"/><path class="cls-2" d="M20.89,33.73c-1.74,4.55-5.14,7.1-6.86,4.46S16,33.47,20.89,33.73Z"/><path class="cls-2" d="M160.6,33.73c1.75,4.55,5.15,7.1,6.87,4.46S165.48,33.47,160.6,33.73Z"/></g></g></svg>