<svg xmlns="http://www.w3.org/2000/svg" viewBox="0 0 200.25 92.63"><defs><style>.cls-1{fill:#3d3e6d;stroke:#fff;stroke-miterlimit:10;stroke-width:2px;}</style></defs><g id="Camada_2" data-name="Camada 2"><g id="LINHA"><path class="cls-1" d="M2.39,46.28l16.12,6.1L21,53.52c10.58-3.94,26.1-3.63,35.93.91s10.47,11.72,2,16.62L84,82.68l16.12,8.81,16.13-8.81,65.49-30.3,16.12-6.1-16.12-8.82L116.25,7.17l-16.13-6.1L84,7.17l-7.16,3.31c6.29-.26,12.77.72,17.58,2.95,8.62,4,8.62,10.44,0,14.43s-22.57,4-31.19,0c-4.81-2.23-6.93-5.23-6.37-8.14L18.51,37.46Zm123.4-8.08c7.37-3.41,19.32-3.41,26.69,0s7.37,8.93,0,12.34-19.32,3.41-26.69,0S118.42,41.61,125.79,38.2Z"/></g></g></svg>